<svg xmlns="http://www.w3.org/2000/svg" width="1200" height="900" viewBox="0 0 1200 900">
<rect width="100%" height="100%" fill="#ffffff"/>
<text x="40" y="55" font-family="monospace" font-size="28" fill="#111827">Shoulder horizontal plane cut, y=1.3159m</text>
<text x="40" y="90" font-family="monospace" font-size="20" fill="#374151">Orange = mesh intersection line. Green = shoulder joint.</text>
<line x1="448.27" y1="143.04" x2="446.32" y2="139.04" stroke="#f97316" stroke-width="4" stroke-linecap="round"/>
<line x1="413.16" y1="71.18" x2="403.30" y2="62.18" stroke="#f97316" stroke-width="4" stroke-linecap="round"/>
<line x1="403.30" y1="62.18" x2="399.26" y2="55.93" stroke="#f97316" stroke-width="4" stroke-linecap="round"/>
<line x1="417.63" y1="76.67" x2="415.95" y2="74.97" stroke="#f97316" stroke-width="4" stroke-linecap="round"/>
<line x1="415.95" y1="74.97" x2="413.16" y2="71.18" stroke="#f97316" stroke-width="4" stroke-linecap="round"/>
<line x1="435.71" y1="109.31" x2="432.00" y2="103.03" stroke="#f97316" stroke-width="4" stroke-linecap="round"/>
<line x1="432.00" y1="103.03" x2="430.58" y2="98.94" stroke="#f97316" stroke-width="4" stroke-linecap="round"/>
<line x1="220.35" y1="106.13" x2="217.41" y2="120.80" stroke="#f97316" stroke-width="4" stroke-linecap="round"/>
<line x1="217.41" y1="120.80" x2="211.02" y2="140.42" stroke="#f97316" stroke-width="4" stroke-linecap="round"/>
<line x1="264.23" y1="54.36" x2="250.76" y2="65.36" stroke="#f97316" stroke-width="4" stroke-linecap="round"/>
<line x1="250.76" y1="65.36" x2="239.32" y2="74.97" stroke="#f97316" stroke-width="4" stroke-linecap="round"/>
<line x1="378.57" y1="39.05" x2="375.16" y2="37.93" stroke="#f97316" stroke-width="4" stroke-linecap="round"/>
<line x1="375.16" y1="37.93" x2="363.79" y2="33.51" stroke="#f97316" stroke-width="4" stroke-linecap="round"/>
<line x1="239.32" y1="74.97" x2="228.85" y2="90.88" stroke="#f97316" stroke-width="4" stroke-linecap="round"/>
<line x1="474.74" y1="222.55" x2="476.16" y2="229.38" stroke="#f97316" stroke-width="4" stroke-linecap="round"/>
<line x1="476.16" y1="229.38" x2="478.19" y2="244.73" stroke="#f97316" stroke-width="4" stroke-linecap="round"/>
<line x1="478.19" y1="244.73" x2="478.39" y2="246.62" stroke="#f97316" stroke-width="4" stroke-linecap="round"/>
<line x1="478.39" y1="246.62" x2="478.63" y2="253.48" stroke="#f97316" stroke-width="4" stroke-linecap="round"/>
<line x1="191.91" y1="280.07" x2="191.54" y2="271.42" stroke="#f97316" stroke-width="4" stroke-linecap="round"/>
<line x1="191.54" y1="271.42" x2="190.43" y2="249.03" stroke="#f97316" stroke-width="4" stroke-linecap="round"/>
<line x1="210.86" y1="339.45" x2="202.53" y2="316.41" stroke="#f97316" stroke-width="4" stroke-linecap="round"/>
<line x1="468.91" y1="200.87" x2="472.47" y2="212.62" stroke="#f97316" stroke-width="4" stroke-linecap="round"/>
<line x1="472.47" y1="212.62" x2="474.74" y2="222.55" stroke="#f97316" stroke-width="4" stroke-linecap="round"/>
<line x1="463.97" y1="185.62" x2="467.46" y2="196.59" stroke="#f97316" stroke-width="4" stroke-linecap="round"/>
<line x1="467.46" y1="196.59" x2="468.91" y2="200.87" stroke="#f97316" stroke-width="4" stroke-linecap="round"/>
<line x1="220.56" y1="369.95" x2="219.63" y2="366.31" stroke="#f97316" stroke-width="4" stroke-linecap="round"/>
<line x1="219.63" y1="366.31" x2="210.86" y2="339.45" stroke="#f97316" stroke-width="4" stroke-linecap="round"/>
<line x1="461.50" y1="179.86" x2="462.27" y2="181.44" stroke="#f97316" stroke-width="4" stroke-linecap="round"/>
<line x1="462.27" y1="181.44" x2="463.97" y2="185.62" stroke="#f97316" stroke-width="4" stroke-linecap="round"/>
<line x1="430.58" y1="98.94" x2="421.82" y2="83.40" stroke="#f97316" stroke-width="4" stroke-linecap="round"/>
<line x1="421.82" y1="83.40" x2="417.63" y2="76.67" stroke="#f97316" stroke-width="4" stroke-linecap="round"/>
<line x1="198.26" y1="202.51" x2="201.19" y2="187.89" stroke="#f97316" stroke-width="4" stroke-linecap="round"/>
<line x1="201.19" y1="187.89" x2="202.99" y2="180.83" stroke="#f97316" stroke-width="4" stroke-linecap="round"/>
<line x1="200.16" y1="309.63" x2="202.53" y2="316.41" stroke="#f97316" stroke-width="4" stroke-linecap="round"/>
<line x1="210.27" y1="144.11" x2="211.02" y2="140.42" stroke="#f97316" stroke-width="4" stroke-linecap="round"/>
<line x1="435.71" y1="109.31" x2="437.69" y2="115.66" stroke="#f97316" stroke-width="4" stroke-linecap="round"/>
<line x1="437.69" y1="115.66" x2="439.11" y2="119.10" stroke="#f97316" stroke-width="4" stroke-linecap="round"/>
<line x1="220.35" y1="106.13" x2="228.85" y2="90.88" stroke="#f97316" stroke-width="4" stroke-linecap="round"/>
<line x1="195.45" y1="215.91" x2="196.63" y2="211.76" stroke="#f97316" stroke-width="4" stroke-linecap="round"/>
<line x1="196.63" y1="211.76" x2="198.26" y2="202.51" stroke="#f97316" stroke-width="4" stroke-linecap="round"/>
<line x1="446.32" y1="139.04" x2="444.27" y2="133.17" stroke="#f97316" stroke-width="4" stroke-linecap="round"/>
<line x1="444.27" y1="133.17" x2="439.11" y2="119.10" stroke="#f97316" stroke-width="4" stroke-linecap="round"/>
<line x1="210.27" y1="144.11" x2="208.93" y2="150.74" stroke="#f97316" stroke-width="4" stroke-linecap="round"/>
<line x1="208.93" y1="150.74" x2="202.99" y2="180.83" stroke="#f97316" stroke-width="4" stroke-linecap="round"/>
<line x1="195.45" y1="215.91" x2="192.66" y2="236.43" stroke="#f97316" stroke-width="4" stroke-linecap="round"/>
<line x1="192.66" y1="236.43" x2="190.43" y2="249.03" stroke="#f97316" stroke-width="4" stroke-linecap="round"/>
<line x1="453.22" y1="159.62" x2="456.38" y2="167.44" stroke="#f97316" stroke-width="4" stroke-linecap="round"/>
<line x1="456.38" y1="167.44" x2="461.50" y2="179.86" stroke="#f97316" stroke-width="4" stroke-linecap="round"/>
<line x1="448.27" y1="143.04" x2="453.22" y2="159.62" stroke="#f97316" stroke-width="4" stroke-linecap="round"/>
<line x1="200.16" y1="309.63" x2="193.40" y2="285.38" stroke="#f97316" stroke-width="4" stroke-linecap="round"/>
<line x1="193.40" y1="285.38" x2="191.91" y2="280.07" stroke="#f97316" stroke-width="4" stroke-linecap="round"/>
<line x1="311.00" y1="33.08" x2="315.61" y2="32.55" stroke="#f97316" stroke-width="4" stroke-linecap="round"/>
<line x1="315.61" y1="32.55" x2="333.00" y2="30.31" stroke="#f97316" stroke-width="4" stroke-linecap="round"/>
<line x1="264.23" y1="54.36" x2="280.93" y2="44.66" stroke="#f97316" stroke-width="4" stroke-linecap="round"/>
<line x1="288.79" y1="40.72" x2="290.89" y2="40.04" stroke="#f97316" stroke-width="4" stroke-linecap="round"/>
<line x1="290.89" y1="40.04" x2="311.00" y2="33.08" stroke="#f97316" stroke-width="4" stroke-linecap="round"/>
<line x1="288.79" y1="40.72" x2="280.93" y2="44.66" stroke="#f97316" stroke-width="4" stroke-linecap="round"/>
<line x1="355.86" y1="30.99" x2="357.36" y2="31.60" stroke="#f97316" stroke-width="4" stroke-linecap="round"/>
<line x1="357.36" y1="31.60" x2="363.79" y2="33.51" stroke="#f97316" stroke-width="4" stroke-linecap="round"/>
<line x1="475.10" y1="351.01" x2="474.31" y2="356.10" stroke="#f97316" stroke-width="4" stroke-linecap="round"/>
<line x1="474.31" y1="356.10" x2="471.89" y2="370.22" stroke="#f97316" stroke-width="4" stroke-linecap="round"/>
<line x1="478.63" y1="253.48" x2="478.54" y2="267.04" stroke="#f97316" stroke-width="4" stroke-linecap="round"/>
<line x1="478.54" y1="267.04" x2="478.77" y2="271.48" stroke="#f97316" stroke-width="4" stroke-linecap="round"/>
<line x1="478.77" y1="271.48" x2="478.40" y2="288.91" stroke="#f97316" stroke-width="4" stroke-linecap="round"/>
<line x1="479.22" y1="310.03" x2="479.17" y2="297.73" stroke="#f97316" stroke-width="4" stroke-linecap="round"/>
<line x1="479.17" y1="297.73" x2="478.40" y2="288.91" stroke="#f97316" stroke-width="4" stroke-linecap="round"/>
<line x1="479.22" y1="310.03" x2="478.65" y2="319.52" stroke="#f97316" stroke-width="4" stroke-linecap="round"/>
<line x1="478.65" y1="319.52" x2="478.66" y2="330.78" stroke="#f97316" stroke-width="4" stroke-linecap="round"/>
<line x1="478.66" y1="330.78" x2="476.26" y2="344.73" stroke="#f97316" stroke-width="4" stroke-linecap="round"/>
<line x1="476.26" y1="344.73" x2="475.10" y2="351.01" stroke="#f97316" stroke-width="4" stroke-linecap="round"/>
<line x1="333.00" y1="30.31" x2="337.12" y2="30.58" stroke="#f97316" stroke-width="4" stroke-linecap="round"/>
<line x1="337.12" y1="30.58" x2="355.86" y2="30.99" stroke="#f97316" stroke-width="4" stroke-linecap="round"/>
<line x1="399.26" y1="55.93" x2="385.20" y2="44.00" stroke="#f97316" stroke-width="4" stroke-linecap="round"/>
<line x1="385.20" y1="44.00" x2="378.57" y2="39.05" stroke="#f97316" stroke-width="4" stroke-linecap="round"/>
<line x1="446.33" y1="601.15" x2="446.95" y2="599.71" stroke="#f97316" stroke-width="4" stroke-linecap="round"/>
<line x1="446.95" y1="599.71" x2="448.29" y2="597.12" stroke="#f97316" stroke-width="4" stroke-linecap="round"/>
<line x1="399.34" y1="684.32" x2="403.33" y2="678.23" stroke="#f97316" stroke-width="4" stroke-linecap="round"/>
<line x1="403.33" y1="678.23" x2="413.18" y2="669.21" stroke="#f97316" stroke-width="4" stroke-linecap="round"/>
<line x1="417.73" y1="663.51" x2="413.18" y2="669.21" stroke="#f97316" stroke-width="4" stroke-linecap="round"/>
<line x1="430.62" y1="641.29" x2="432.00" y2="637.22" stroke="#f97316" stroke-width="4" stroke-linecap="round"/>
<line x1="432.00" y1="637.22" x2="435.78" y2="631.06" stroke="#f97316" stroke-width="4" stroke-linecap="round"/>
<line x1="211.45" y1="599.92" x2="217.49" y2="619.42" stroke="#f97316" stroke-width="4" stroke-linecap="round"/>
<line x1="217.49" y1="619.42" x2="220.41" y2="634.14" stroke="#f97316" stroke-width="4" stroke-linecap="round"/>
<line x1="238.72" y1="665.77" x2="250.54" y2="675.01" stroke="#f97316" stroke-width="4" stroke-linecap="round"/>
<line x1="250.54" y1="675.01" x2="263.87" y2="686.41" stroke="#f97316" stroke-width="4" stroke-linecap="round"/>
<line x1="378.31" y1="700.52" x2="363.17" y2="706.51" stroke="#f97316" stroke-width="4" stroke-linecap="round"/>
<line x1="228.31" y1="649.34" x2="235.29" y2="659.04" stroke="#f97316" stroke-width="4" stroke-linecap="round"/>
<line x1="235.29" y1="659.04" x2="238.72" y2="665.77" stroke="#f97316" stroke-width="4" stroke-linecap="round"/>
<line x1="477.94" y1="495.34" x2="477.41" y2="498.19" stroke="#f97316" stroke-width="4" stroke-linecap="round"/>
<line x1="477.41" y1="498.19" x2="474.58" y2="517.59" stroke="#f97316" stroke-width="4" stroke-linecap="round"/>
<line x1="478.36" y1="487.09" x2="478.13" y2="493.57" stroke="#f97316" stroke-width="4" stroke-linecap="round"/>
<line x1="478.13" y1="493.57" x2="477.94" y2="495.34" stroke="#f97316" stroke-width="4" stroke-linecap="round"/>
<line x1="190.31" y1="491.15" x2="191.07" y2="479.41" stroke="#f97316" stroke-width="4" stroke-linecap="round"/>
<line x1="191.07" y1="479.41" x2="192.44" y2="460.08" stroke="#f97316" stroke-width="4" stroke-linecap="round"/>
<line x1="202.51" y1="425.49" x2="210.88" y2="402.94" stroke="#f97316" stroke-width="4" stroke-linecap="round"/>
<line x1="210.88" y1="402.94" x2="211.57" y2="400.82" stroke="#f97316" stroke-width="4" stroke-linecap="round"/>
<line x1="474.58" y1="517.59" x2="471.10" y2="529.99" stroke="#f97316" stroke-width="4" stroke-linecap="round"/>
<line x1="471.10" y1="529.99" x2="468.83" y2="539.36" stroke="#f97316" stroke-width="4" stroke-linecap="round"/>
<line x1="468.83" y1="539.36" x2="467.38" y2="543.68" stroke="#f97316" stroke-width="4" stroke-linecap="round"/>
<line x1="467.38" y1="543.68" x2="463.93" y2="554.71" stroke="#f97316" stroke-width="4" stroke-linecap="round"/>
<line x1="211.57" y1="400.82" x2="212.22" y2="398.26" stroke="#f97316" stroke-width="4" stroke-linecap="round"/>
<line x1="212.22" y1="398.26" x2="220.56" y2="369.95" stroke="#f97316" stroke-width="4" stroke-linecap="round"/>
<line x1="463.93" y1="554.71" x2="462.28" y2="558.83" stroke="#f97316" stroke-width="4" stroke-linecap="round"/>
<line x1="462.28" y1="558.83" x2="461.52" y2="560.36" stroke="#f97316" stroke-width="4" stroke-linecap="round"/>
<line x1="417.73" y1="663.51" x2="422.02" y2="656.64" stroke="#f97316" stroke-width="4" stroke-linecap="round"/>
<line x1="422.02" y1="656.64" x2="430.62" y2="641.29" stroke="#f97316" stroke-width="4" stroke-linecap="round"/>
<line x1="203.11" y1="559.31" x2="201.45" y2="552.37" stroke="#f97316" stroke-width="4" stroke-linecap="round"/>
<line x1="201.45" y1="552.37" x2="198.45" y2="538.40" stroke="#f97316" stroke-width="4" stroke-linecap="round"/>
<line x1="202.51" y1="425.49" x2="200.64" y2="430.73" stroke="#f97316" stroke-width="4" stroke-linecap="round"/>
<line x1="210.67" y1="596.01" x2="211.21" y2="597.60" stroke="#f97316" stroke-width="4" stroke-linecap="round"/>
<line x1="211.21" y1="597.60" x2="211.45" y2="599.92" stroke="#f97316" stroke-width="4" stroke-linecap="round"/>
<line x1="439.29" y1="621.04" x2="437.89" y2="624.58" stroke="#f97316" stroke-width="4" stroke-linecap="round"/>
<line x1="437.89" y1="624.58" x2="435.78" y2="631.06" stroke="#f97316" stroke-width="4" stroke-linecap="round"/>
<line x1="228.31" y1="649.34" x2="220.41" y2="634.14" stroke="#f97316" stroke-width="4" stroke-linecap="round"/>
<line x1="198.45" y1="538.40" x2="196.63" y2="528.63" stroke="#f97316" stroke-width="4" stroke-linecap="round"/>
<line x1="196.63" y1="528.63" x2="195.34" y2="524.28" stroke="#f97316" stroke-width="4" stroke-linecap="round"/>
<line x1="439.29" y1="621.04" x2="444.40" y2="606.88" stroke="#f97316" stroke-width="4" stroke-linecap="round"/>
<line x1="444.40" y1="606.88" x2="446.33" y2="601.15" stroke="#f97316" stroke-width="4" stroke-linecap="round"/>
<line x1="210.67" y1="596.01" x2="209.18" y2="588.87" stroke="#f97316" stroke-width="4" stroke-linecap="round"/>
<line x1="209.18" y1="588.87" x2="203.11" y2="559.31" stroke="#f97316" stroke-width="4" stroke-linecap="round"/>
<line x1="195.34" y1="524.28" x2="193.82" y2="514.60" stroke="#f97316" stroke-width="4" stroke-linecap="round"/>
<line x1="193.82" y1="514.60" x2="190.31" y2="491.15" stroke="#f97316" stroke-width="4" stroke-linecap="round"/>
<line x1="461.52" y1="560.36" x2="459.83" y2="564.48" stroke="#f97316" stroke-width="4" stroke-linecap="round"/>
<line x1="459.83" y1="564.48" x2="453.21" y2="580.57" stroke="#f97316" stroke-width="4" stroke-linecap="round"/>
<line x1="448.29" y1="597.12" x2="451.37" y2="586.35" stroke="#f97316" stroke-width="4" stroke-linecap="round"/>
<line x1="451.37" y1="586.35" x2="453.21" y2="580.57" stroke="#f97316" stroke-width="4" stroke-linecap="round"/>
<line x1="192.44" y1="460.08" x2="193.89" y2="455.04" stroke="#f97316" stroke-width="4" stroke-linecap="round"/>
<line x1="193.89" y1="455.04" x2="200.64" y2="430.73" stroke="#f97316" stroke-width="4" stroke-linecap="round"/>
<line x1="332.84" y1="709.69" x2="315.41" y2="707.14" stroke="#f97316" stroke-width="4" stroke-linecap="round"/>
<line x1="315.41" y1="707.14" x2="310.86" y2="706.51" stroke="#f97316" stroke-width="4" stroke-linecap="round"/>
<line x1="263.87" y1="686.41" x2="267.69" y2="688.61" stroke="#f97316" stroke-width="4" stroke-linecap="round"/>
<line x1="267.69" y1="688.61" x2="281.01" y2="695.44" stroke="#f97316" stroke-width="4" stroke-linecap="round"/>
<line x1="310.86" y1="706.51" x2="306.94" y2="705.38" stroke="#f97316" stroke-width="4" stroke-linecap="round"/>
<line x1="306.94" y1="705.38" x2="288.74" y2="698.96" stroke="#f97316" stroke-width="4" stroke-linecap="round"/>
<line x1="281.01" y1="695.44" x2="288.74" y2="698.96" stroke="#f97316" stroke-width="4" stroke-linecap="round"/>
<line x1="355.59" y1="709.08" x2="363.17" y2="706.51" stroke="#f97316" stroke-width="4" stroke-linecap="round"/>
<line x1="471.89" y1="370.22" x2="474.26" y2="384.24" stroke="#f97316" stroke-width="4" stroke-linecap="round"/>
<line x1="474.26" y1="384.24" x2="475.01" y2="389.28" stroke="#f97316" stroke-width="4" stroke-linecap="round"/>
<line x1="478.35" y1="473.11" x2="478.39" y2="475.91" stroke="#f97316" stroke-width="4" stroke-linecap="round"/>
<line x1="478.39" y1="475.91" x2="478.36" y2="487.09" stroke="#f97316" stroke-width="4" stroke-linecap="round"/>
<line x1="478.35" y1="473.11" x2="478.54" y2="468.55" stroke="#f97316" stroke-width="4" stroke-linecap="round"/>
<line x1="478.54" y1="468.55" x2="478.36" y2="451.26" stroke="#f97316" stroke-width="4" stroke-linecap="round"/>
<line x1="478.36" y1="451.26" x2="479.16" y2="442.37" stroke="#f97316" stroke-width="4" stroke-linecap="round"/>
<line x1="479.16" y1="442.37" x2="479.15" y2="430.10" stroke="#f97316" stroke-width="4" stroke-linecap="round"/>
<line x1="478.41" y1="409.43" x2="478.48" y2="420.69" stroke="#f97316" stroke-width="4" stroke-linecap="round"/>
<line x1="478.48" y1="420.69" x2="479.15" y2="430.10" stroke="#f97316" stroke-width="4" stroke-linecap="round"/>
<line x1="475.01" y1="389.28" x2="476.12" y2="395.46" stroke="#f97316" stroke-width="4" stroke-linecap="round"/>
<line x1="476.12" y1="395.46" x2="478.41" y2="409.43" stroke="#f97316" stroke-width="4" stroke-linecap="round"/>
<line x1="355.59" y1="709.08" x2="353.29" y2="709.28" stroke="#f97316" stroke-width="4" stroke-linecap="round"/>
<line x1="353.29" y1="709.28" x2="332.84" y2="709.69" stroke="#f97316" stroke-width="4" stroke-linecap="round"/>
<line x1="378.31" y1="700.52" x2="385.27" y2="695.65" stroke="#f97316" stroke-width="4" stroke-linecap="round"/>
<line x1="385.27" y1="695.65" x2="399.34" y2="684.32" stroke="#f97316" stroke-width="4" stroke-linecap="round"/>
<g><circle cx="334.77" cy="565.23" r="13" fill="#16a34a" stroke="#052e16" stroke-width="3"/><text x="334.77" y="543.23" text-anchor="middle" font-family="monospace" font-size="22" fill="#111827">left shoulder</text></g>
<g><circle cx="334.77" cy="174.77" r="13" fill="#16a34a" stroke="#052e16" stroke-width="3"/><text x="334.77" y="152.77" text-anchor="middle" font-family="monospace" font-size="22" fill="#111827">right shoulder</text></g>
<line x1="80" y1="820" x2="220" y2="820" stroke="#111827" stroke-width="3" marker-end="url(#arrow)"/>
<line x1="80" y1="820" x2="80" y2="680" stroke="#111827" stroke-width="3" marker-end="url(#arrow)"/>
<text x="230" y="828" font-family="monospace" font-size="20" fill="#111827">+x front</text>
<text x="45" y="670" font-family="monospace" font-size="20" fill="#111827">+z right</text>
<defs><marker id="arrow" markerWidth="10" markerHeight="10" refX="5" refY="3" orient="auto" markerUnits="strokeWidth"><path d="M0,0 L0,6 L6,3 z" fill="#111827" /></marker></defs>
</svg>