<?xml version="1.0" encoding="UTF-8" standalone="no"?>
<!-- Created with Inkscape (http://www.inkscape.org/) -->

<svg
   width="1200mm"
   height="630mm"
   viewBox="0 0 1200 630"
   version="1.1"
   id="svg1"
   xml:space="preserve"
   inkscape:export-filename="social-image.png"
   inkscape:export-xdpi="25.4"
   inkscape:export-ydpi="25.4"
   xmlns:inkscape="http://www.inkscape.org/namespaces/inkscape"
   xmlns:sodipodi="http://sodipodi.sourceforge.net/DTD/sodipodi-0.dtd"
   xmlns:xlink="http://www.w3.org/1999/xlink"
   xmlns="http://www.w3.org/2000/svg"
   xmlns:svg="http://www.w3.org/2000/svg"><sodipodi:namedview
     id="namedview1"
     pagecolor="#ffffff"
     bordercolor="#000000"
     borderopacity="0.25"
     inkscape:showpageshadow="2"
     inkscape:pageopacity="0.0"
     inkscape:pagecheckerboard="0"
     inkscape:deskcolor="#d1d1d1"
     inkscape:document-units="mm"><inkscape:page
       x="0"
       y="0"
       width="1200"
       height="630"
       id="page2"
       margin="0"
       bleed="0" /></sodipodi:namedview><defs
     id="defs1"><linearGradient
       id="linearGradient1"
       inkscape:collect="always"><stop
         style="stop-color:#000000;stop-opacity:1;"
         offset="0"
         id="stop1" /><stop
         style="stop-color:#1d2839;stop-opacity:1;"
         offset="1"
         id="stop2" /></linearGradient><linearGradient
       inkscape:collect="always"
       xlink:href="#linearGradient1"
       id="linearGradient2"
       x1="8.2418242"
       y1="606.95148"
       x2="981.95428"
       y2="83.006958"
       gradientUnits="userSpaceOnUse"
       gradientTransform="matrix(0.96058469,0,0,0.88738599,20.386322,16.716981)" /><style
       id="style1">.cls-1{fill-rule:evenodd;}</style><style
       id="style1-9">.cls-1{fill-rule:evenodd;}</style></defs><g
     inkscape:label="Layer 1"
     inkscape:groupmode="layer"
     id="layer1"><rect
       style="fill:url(#linearGradient2);stroke-width:0.244278"
       id="rect1"
       width="1199.9863"
       height="630.02124"
       x="0.028400859"
       y="5.5469144e-07"
       ry="10.708281" /><g
       id="g2"
       transform="matrix(7.4138704,0,0,7.4138704,377.58389,13.412175)"><g
         inkscape:label="Layer 1"
         id="layer1-3"
         style="display:inline"
         transform="translate(-2.883768,-3.0155907)"><path
           d="m 58.802252,31.97774 -6.43532,-1.19633 c -0.15701,-0.0289 -0.32846,-0.17627 -0.38047,-0.327489 l -1.97269,-4.6023 c -0.0732,-0.14256 -0.0597,-0.36506 0.0318,-0.49799 l 3.74984,-5.46534 c 0.0896,-0.13197 0.0722,-0.33135 -0.0414,-0.44502 l -4.68319,-4.6832 c -0.1127,-0.1127 -0.31305,-0.13197 -0.44405,-0.0414 l -5.5607,3.8163 c -0.13196,0.0906 -0.35736,0.10692 -0.49992,0.0356 l -4.4607,-1.82628 c -0.15122,-0.0501 -0.29956,-0.21961 -0.32846,-0.37662 l -1.23871,-6.6558889 c -0.0289,-0.15701 -0.18398,-0.28512 -0.34291,-0.28512 h -6.62411 c -0.15893,0 -0.31401,0.12811 -0.3429,0.28512 l -1.238711,6.6558889 c -0.0299,0.15701 -0.17724,0.32654 -0.32846,0.37662 l -4.46167,1.82628 c -0.14352,0.0703 -0.36891,0.0539 -0.49991,-0.0356 l -5.56071,-3.8163 c -0.13196,-0.0906 -0.33231,-0.0722 -0.44501,0.0414 l -4.68321,4.6832 c -0.11269,0.1127 -0.13196,0.31305 -0.0414,0.44502 l 3.74984,5.46534 c 0.0896,0.13197 0.10402,0.35543 0.0308,0.49799 l -1.97269,4.6023 c -0.052,0.151219 -0.22347,0.298599 -0.38047,0.327489 l -6.4353204,1.19633 c -0.157,0.0299 -0.28511,0.18398 -0.28511,0.343871 v 6.62314 c 0,0.1599 0.12907,0.31498 0.28607,0.34388 l 6.2773504,1.16839 c 0.15701,0.0289 0.32461,0.1782 0.37277,0.33039 l 1.96017,4.89511 c 0.0703,0.14353 0.0539,0.36796 -0.0376,0.49992 l -3.56586,5.19564 c -0.0896,0.13196 -0.0713,0.33232 0.0414,0.44501 l 4.68418,4.68321 c 0.11269,0.1127 0.31304,0.131 0.44501,0.0414 l 5.10413,-3.50325 c 0.13196,-0.0896 0.35158,-0.0973 0.48932,-0.0164 l 2.25106,1.20211 c 0.14256,0.0732 0.3092,0.0116 0.36988,-0.13582 l 4.640821,-11.21483 c 0.0617,-0.14738 0,-0.33617 -0.13581,-0.41901 l -0.56349,-0.34483 c -0.10403,-0.0636 -0.24562,-0.17242 -0.35639,-0.2726 -2.032411,-1.30131 -3.379961,-3.57742 -3.379961,-6.16946 0,-4.045551 3.27978,-7.32437 7.324371,-7.32437 4.04459,0 7.32438,3.279779 7.32438,7.32437 0,2.59204 -1.34756,4.86911 -3.37997,6.16946 -0.10981,0.10018 -0.2514,0.20902 -0.35543,0.2726 l -0.56349,0.34483 c -0.13582,0.0838 -0.19746,0.27163 -0.13582,0.41901 l 4.64084,11.21484 c 0.0607,0.14738 0.22732,0.20902 0.36987,0.13582 l 2.25106,-1.20211 c 0.13775,-0.0799 0.35737,-0.0732 0.48932,0.0164 l 5.10414,3.50325 c 0.13196,0.0896 0.33231,0.0713 0.44404,-0.0414 l 4.68418,-4.68321 c 0.1127,-0.11269 0.13196,-0.31401 0.0414,-0.445 l -3.56587,-5.19565 c -0.0896,-0.13196 -0.10691,-0.35639 -0.0366,-0.49991 l 1.96017,-4.89512 c 0.0482,-0.15219 0.2148,-0.30149 0.37276,-0.33039 l 6.27736,-1.16839 c 0.157,-0.0289 0.28511,-0.18398 0.28511,-0.34387 v -6.62315 c 7.7e-4,-0.159901 -0.12715,-0.314011 -0.28415,-0.343871 z m -1.12505,6.242671 -5.41044,1.00657 c -0.41034,0.0809 -0.67619,0.25237 -0.90544,0.45079 -0.20805,0.19072 -0.39299,0.41226 -0.52303,0.7571 l -1.94572,4.86044 c -0.12425,0.288 -0.15026,0.53074 -0.15315,0.75324 0.009,0.35061 0.0655,0.68774 0.32846,1.08845 l 3.06692,4.46937 -3.43776,3.43775 -4.37786,-3.00526 c -0.38336,-0.25333 -0.72628,-0.31498 -1.05859,-0.3198 -0.2803,0.003 -0.56927,0.0501 -0.89099,0.22251 v 0 l -1.1366,0.60683 -3.81438,-9.21807 c 0.0915,-0.0665 0.17627,-0.1339 0.26104,-0.2071 2.36761,-1.55561 3.93574,-4.24686 3.93574,-7.29548 0,-4.824801 -3.90974,-8.73357 -8.73358,-8.73453 -4.823831,0 -8.732611,3.909729 -8.734531,8.73453 0,3.04958 1.56909,5.73891 3.9367,7.29548 0.0848,0.0722 0.16857,0.13967 0.26104,0.2071 l -3.81438,9.21807 -1.13661,-0.60683 c -0.32653,-0.1753 -0.61935,-0.21961 -0.89291,-0.22251 -0.33713,0.006 -0.67715,0.0674 -1.06051,0.32172 l -4.37497,3.00334 -3.43872,-3.43775 3.06691,-4.47033 c 0.26104,-0.39975 0.31979,-0.73495 0.32846,-1.08749 -0.003,-0.22829 -0.0318,-0.47102 -0.15219,-0.75132 l -1.94957,-4.87103 c -0.131,-0.34291 -0.3169,-0.5606 -0.52207,-0.74939 -0.23021,-0.19746 -0.49413,-0.36796 -0.90832,-0.44983 l -5.4065904,-1.0056 v -4.86141 c 0,0 5.5674504,-1.03739 5.5674504,-1.03739 0.40359,-0.0809 0.6627,-0.244661 0.89098,-0.435381 0.20421,-0.18109 0.38915,-0.39011 0.52689,-0.72243 v 0 c 0,0 1.96113,-4.576279 1.96113,-4.576279 0.13196,-0.28897 0.16952,-0.54615 0.17145,-0.79659 -0.008,-0.34291 -0.0645,-0.67811 -0.32075,-1.074 l -3.25571,-4.74389 3.43776,-3.43775 4.83347,3.31735 c 0.40359,0.26296 0.73494,0.31786 1.08555,0.32653 0.22925,-0.002 0.47198,-0.0318 0.75421,-0.15219 l 4.44433,-1.81953 c 0.34387,-0.13582 0.56059,-0.32365 0.746501,-0.52881 0.19361,-0.22925 0.35832,-0.48836 0.44115,-0.89099 l 1.07785,-5.795729 h 4.86141 l 1.07688,5.789949 c 0.0848,0.41034 0.24948,0.66848 0.44213,0.89677 0.18686,0.20709 0.40359,0.39492 0.75131,0.5317 l 4.44529,1.81953 c 0.27838,0.11848 0.51629,0.14738 0.7465,0.15027 0.34773,-0.009 0.68293,-0.0636 1.08556,-0.32654 l 4.83539,-3.31928 3.43776,3.43872 -3.25089,4.73812 c -0.26103,0.3901 -0.31883,0.73397 -0.32653,1.07881 0.002,0.24466 0.0385,0.49413 0.16182,0.77154 l 1.97269,4.602289 v 0 c 0.13871,0.33232 0.32364,0.54134 0.52784,0.72243 0.22829,0.18975 0.48451,0.3535 0.88906,0.435381 l 5.56938,1.03547 v 4.8614 z"
           id="path17"
           style="fill:#999999;stroke-width:0.0963227" /></g><g
         id="layer3"
         inkscape:label="Layer 3"
         transform="translate(-2.883768,-3.0155907)"><g
           id="g4"
           transform="matrix(0.07561161,0,0,0.07561161,-4.7126132,-4.4770853)"
           style="display:inline;fill:#f9f9f9"><path
             fill="#000000"
             opacity="1"
             stroke="none"
             d="m 653.35516,659.3429 c 6.00751,-5.05793 11.91858,-9.69617 17.38776,-14.80732 2.8656,-2.67797 5.75177,-4.20941 9.67487,-4.18774 12.77923,0.0706 25.25286,1.54462 36.84063,7.43988 4.37299,2.22467 8.11341,5.1134 10.72626,9.43481 2.27423,3.76154 2.15668,6.75757 -0.85913,10.27112 -12.21344,14.22864 -25.84595,26.90058 -40.79047,38.17816 -33.56646,25.3302 -71.05804,41.72321 -112.46533,49.06879 -15.58929,2.76556 -31.32715,4.04669 -47.1604,4.40991 -4.61212,0.10578 -6.30658,-1.05236 -6.28058,-6.12622 0.14014,-27.30273 -0.22516,-54.60754 -0.27295,-81.91186 -0.0729,-41.65314 -0.42273,-83.31128 0.096,-124.95801 0.38196,-30.66345 0.11591,-61.32169 0.32623,-91.98136 0.04,-5.82415 -0.27392,-11.6506 -0.41839,-17.47616 -0.10535,-4.24924 1.89221,-5.44592 5.98498,-4.6546 29.27588,5.66064 48.84961,22.30987 56.2486,51.40408 5.83093,22.92801 0.0876,43.83621 -14.46283,62.37125 -1.42682,1.81756 -2.90234,3.59692 -4.11713,5.68542 2.42115,-0.64886 4.2475,-2.16669 5.97827,-3.82873 26.62207,-25.56598 28.33399,-71.35556 3.90424,-99.09272 -13.12964,-14.90713 -29.33588,-23.80468 -49.02393,-26.27978 -2.94494,-0.37024 -4.88482,-1.42444 -4.56408,-4.60309 0.67236,-6.66489 0.0838,-13.31106 -0.0495,-19.96396 -0.0823,-4.1109 2.07086,-4.84695 5.77197,-4.62707 23.36469,1.38803 45.68799,7.31155 67.19,16.10205 18.50232,7.56414 37.84803,11.46289 57.26105,15.40985 12.27551,2.49585 24.0434,6.64728 35.51892,11.68591 6.68439,2.93497 13.27014,6.26477 20.80933,6.65448 9.1972,0.47546 16.57428,-3.12689 19.60486,-10.02209 3.6416,-8.28574 0.8432,-15.3458 -4.85828,-21.48194 -5.36383,-5.77279 -11.8783,-10.17871 -18.51086,-14.37051 -14.6222,-9.2413 -26.27082,-20.97293 -31.74238,-37.86636 -0.49682,-1.53394 -1.46551,-3.02182 -0.8952,-5.19394 19.18097,-1.95264 37.89386,2.92743 57.09278,5.52368 -0.13825,-3.95307 -2.58014,-4.23615 -4.48767,-4.77487 -17.50171,-4.94306 -35.31922,-8.17337 -53.47242,-9.37891 -2.70166,-0.17941 -4.74194,-0.80679 -6.30767,-3.16989 -12.5741,-18.97779 -31.00294,-30.34448 -51.38538,-38.9896 -26.64612,-11.30172 -54.56403,-16.93731 -83.43872,-18.08557 -8.46277,-0.33648 -8.46668,-0.3974 -8.46881,-8.95599 -0.003,-12.16623 -0.004,-24.33247 0.0108,-36.49869 0.009,-6.98755 0.0579,-7.15108 6.89069,-6.97703 33.48669,0.85295 65.73114,7.80195 96.69433,20.45343 58.04334,23.71638 102.96118,62.66267 133.88111,117.25975 16.48187,29.10293 27.1463,60.37399 31.14721,93.69397 8.31641,69.25946 -7.77246,132.1781 -49.42486,188.3529 -0.96497,1.30133 -1.66571,2.93433 -4.05774,3.50147 -12.37018,-17.90485 -32.36316,-19.14771 -51.45679,-21.83777 -0.41937,-2.96649 1.51984,-4.16553 2.70532,-5.61408 17.71106,-21.64141 31.17493,-45.6015 39.64228,-72.29791 1.40417,-4.42743 3.0614,-8.83014 2.9085,-13.59845 -0.10711,-3.34015 -1.57934,-5.32757 -5.19714,-5.27917 -27.83948,0.37237 -55.11823,3.46429 -80.6618,15.75122 -5.995,2.88366 -10.26954,7.13342 -13.45667,12.83447 -13.79089,24.66882 -33.2901,43.58331 -58.27283,56.67871 -5.07971,2.66272 -6.98712,5.80951 -7.23785,11.53589 -0.57483,13.1286 -1.51398,26.22516 -0.64386,39.375 0.51074,7.71838 3.84503,10.71985 11.68262,11.18475 29.34576,1.74079 54.99804,-7.82238 78.46203,-25.36956 m 25.5777,-206.77366 c -5.61523,-5.81689 -11.62121,-11.08291 -19.90637,-12.61453 -12.25366,-2.2652 -24.52271,-4.45376 -36.81329,-6.5069 -2.31397,-0.38653 -4.85492,-0.90075 -7.04029,0.27826 -0.31738,2.18061 0.61334,3.61756 1.33246,5.09342 9.25537,18.99481 14.57758,38.90591 13.70905,60.17917 -0.18628,4.56274 2.14141,5.19317 5.83166,5.14569 17.15418,-0.22086 34.30969,-0.3374 51.46515,-0.42877 1.80902,-0.01 3.81323,-0.52741 5.49713,0.7146 -0.62128,1.48922 -1.65246,1.62426 -2.62396,1.7239 -7.27814,0.74652 -14.56561,1.40525 -21.83917,2.19315 -12.06348,1.30673 -24.12,2.67828 -36.17621,4.0509 -2.17261,0.24732 -4.03009,1.13611 -3.83582,3.6864 0.19464,2.55439 2.27857,2.53504 4.14948,2.36359 21.03033,-1.927 42.06348,-3.82678 63.08258,-5.87073 6.78796,-0.66006 9.64056,-4.62658 8.06579,-11.45962 -4.14972,-18.00659 -12.33056,-34.02301 -24.89819,-48.54853 z"
             id="path1-8"
             style="fill:#f9f9f9" /><path
             fill="#000000"
             opacity="1"
             stroke="none"
             d="m 220.67602,354.81366 c 5.06582,-20.84827 16.07866,-25.32993 34.29108,-22.23007 9.88465,1.68243 19.61206,3.78656 28.77799,7.9433 9.57638,4.34286 14.74991,11.69235 14.56622,22.37469 -0.26337,15.31998 -2.0318,30.54285 -3.13239,45.80896 -0.22827,3.16595 -1.63937,4.66812 -5.06277,4.71973 -7.82056,0.11798 -15.64206,0.48614 -23.45096,0.95596 -5.06772,0.3049 -10.09671,1.0126 -14.3745,5.23859 14.69433,-1.26566 28.76345,-1.76541 42.83822,-1.95456 10.71795,-0.14408 15.65799,4.75485 15.79727,15.45721 0.0432,3.31449 -0.27497,6.66931 -0.79489,9.94745 -0.89173,5.62201 -4.81766,9.19769 -10.80362,10.23782 -8.07395,1.40287 -16.2713,1.23041 -24.40622,1.59958 -4.46445,0.20258 -6.39707,1.70441 -6.5604,6.02909 -0.49145,13.01724 -0.39819,25.96841 2.93036,38.70758 3.1109,11.90625 10.30622,19.3695 22.52197,22.07934 13.90281,3.08417 27.87845,2.36994 41.76282,0.74945 20.67124,-2.41259 41.07437,-6.40954 60.88983,-12.98721 19.40546,-6.44153 19.93503,-7.52441 22.28513,-27.97653 1.91513,-16.66672 4.40982,-33.28711 7.91708,-49.70694 3.79782,-17.78012 13.05225,-25.05679 31.35175,-26.2432 11.0047,-0.71344 21.9877,-0.24679 32.97775,-0.47409 6.39942,-0.13241 6.71179,-0.38495 6.71399,-6.89581 0.0175,-51.99933 0.0153,-103.99869 0.0182,-155.99802 5.5e-4,-10.2742 0.22128,-10.46089 12.20007,-8.94496 0,7.53705 3.1e-4,15.27555 -3e-5,23.01402 -0.002,50.83231 -0.011,101.66462 -0.006,152.49692 0.01,96.47519 0.088,192.95044 -0.0104,289.42554 -0.0187,18.32422 0.56027,36.65454 -0.31149,54.98047 -0.18998,3.99328 -1.05704,6.13983 -5.71772,5.83984 -4.61105,-0.29675 -6.25854,-1.99737 -6.23651,-6.73205 0.15909,-34.16541 0.0774,-68.33203 0.0689,-102.49823 -0.002,-9.83319 -0.22378,-19.67255 0.0659,-29.49695 0.14459,-4.90247 -1.7486,-6.24927 -6.41379,-6.24609 -26.14447,0.0179 -52.26715,-1.05567 -78.3388,-2.87818 -46.0094,-3.21625 -91.70844,-8.656 -136.57178,-19.9198 -34.60068,-8.68725 -55.25144,-31.19537 -64.73158,-64.73877 -7.22396,-25.5603 -8.69423,-51.66595 -7.2499,-78.14914 1.73046,-31.72955 6.472,-62.83532 16.19882,-93.53494 m 186.98667,167.56311 c -2.84366,0.94586 -5.6626,1.97534 -8.53485,2.8244 -25.13843,7.43073 -50.76239,12.21008 -76.93296,13.94501 -10.35992,0.68683 -20.63461,-0.0573 -30.78637,-2.21887 -22.14121,-4.71442 -33.21948,-19.44849 -36.68125,-40.89218 -1.97041,-12.20566 -2.7133,-24.47019 -1.20562,-36.81626 0.77407,-6.33874 0.31912,-7.02212 -4.38912,-8.81372 -0.22461,0.6102 -0.6224,1.21152 -0.647,1.8277 -0.65724,16.46625 -1.63744,32.98535 1.11226,49.32614 4.03988,24.00809 16.94354,37.87796 39.44754,42.83231 9.4404,2.07837 19.0693,3.00049 28.73804,3.30621 16.17965,0.51153 32.30984,-0.45203 48.37991,-2.15418 13.561,-1.43627 27.08267,-3.27508 40.58801,-5.17541 2.18311,-0.30713 5.24957,0.10065 6.0011,-3.35364 1.13354,-5.21039 1.29346,-10.42297 0.90124,-15.57586 -2.19458,-0.58765 -3.73843,0.0249 -5.99093,0.93835 M 260.8132,384.70285 c 3.40619,0.849 6.86441,1.30624 10.37479,1.26828 2.81817,-0.0305 4.84811,-1.22437 5.38104,-4.16931 1.09494,-6.05042 2.10956,-12.11118 2.16742,-18.29074 0.0363,-3.87537 -1.55588,-6.33893 -5.54746,-7.01496 -3.44158,-0.58285 -6.88415,-1.17871 -10.29736,-1.90484 -3.31436,-0.70505 -4.93887,0.55524 -5.5267,3.86688 -0.95776,5.39557 -2.16969,10.74594 -3.26692,16.11688 -1.62429,7.9509 -1.62152,7.95145 6.71519,10.12781 z"
             id="path2-4"
             style="fill:#f9f9f9" /><path
             fill="#000000"
             opacity="1"
             stroke="none"
             d="m 667.24695,473.00736 c 7.03821,-3.63477 13.46039,-2.99097 17.73346,1.5184 3.82922,4.04101 4.49518,10.888 1.39776,15.71087 -3.09155,4.81375 -7.64715,6.70658 -13.23651,6.05796 -5.22467,-0.60624 -8.41699,-4.00776 -9.96478,-8.63047 -1.81354,-5.41623 -0.87128,-10.49756 4.07007,-14.65676 z"
             id="path3-0"
             style="fill:#f9f9f9" /><path
             fill="#000000"
             opacity="1"
             stroke="none"
             d="m 647.90149,468.45743 c -4.69196,-3.91565 -7.40454,-8.34433 -5.4765,-14.22415 1.72375,-5.25684 5.14508,-8.96866 11.00958,-9.52607 5.9906,-0.56939 10.75537,2.0795 13.16669,7.08902 2.41864,5.02457 1.49975,11.02625 -2.2685,14.81702 -4.21118,4.23633 -9.81427,4.95236 -16.43127,1.84418 z"
             id="path4"
             style="fill:#f9f9f9" /></g></g></g><text
       xml:space="preserve"
       style="font-weight:900;font-size:90px;font-family:'.SF NS Mono';-inkscape-font-specification:'.SF NS Mono Heavy';text-align:start;writing-mode:lr-tb;direction:ltr;text-anchor:start;fill:#999999;stroke-width:0.264583"
       x="271.09131"
       y="501.89417"
       id="text2"><tspan
         id="tspan2"
         style="font-style:normal;font-variant:normal;font-weight:bold;font-stretch:normal;font-size:90px;font-family:sans-serif;-inkscape-font-specification:'sans-serif Bold';stroke-width:0.264583"
         x="271.09131"
         y="501.89417"
         sodipodi:role="line">Open<tspan
   style="font-style:normal;font-variant:normal;font-weight:normal;font-stretch:normal;font-size:90px;font-family:sans-serif;-inkscape-font-specification:sans-serif"
   id="tspan6">SimGear</tspan></tspan></text><path
       style="fill:#999999;stroke-width:0.264583"
       d="M -1.1774034,461.54212 H 140.111"
       id="path6" /></g><g
     inkscape:groupmode="layer"
     id="layer2"
     inkscape:label="Layer 2"><g
       id="g11"
       transform="translate(13.67397,-5.3646609)"><text
         xml:space="preserve"
         style="font-style:normal;font-variant:normal;font-weight:295;font-stretch:normal;font-size:22.5778px;font-family:'.SF NS Mono';-inkscape-font-specification:'.SF NS Mono weight=295';text-align:start;letter-spacing:2.64583px;writing-mode:lr-tb;direction:ltr;text-anchor:start;fill:#999999;stroke-width:0.264583"
         x="363.55774"
         y="571.38617"
         id="text4"><tspan
           sodipodi:role="line"
           id="tspan4"
           style="font-style:normal;font-variant:normal;font-weight:571;font-stretch:normal;font-size:22.5778px;font-family:'.SF NS Mono';-inkscape-font-specification:'.SF NS Mono weight=571';letter-spacing:2.64583px;stroke-width:0.264583"
           x="363.55774"
           y="571.38617">BUILD YOUR OWN SIM HARDWARE</tspan></text><path
         style="fill:#000000;fill-opacity:0.989071;stroke:#00a44f;stroke-width:4.03918;stroke-dasharray:none;stroke-opacity:1"
         d="m 234.30327,563.43211 h 87.12785"
         id="path11" /><path
         style="fill:#000000;fill-opacity:0.989071;stroke:#00a44f;stroke-width:4.03918;stroke-dasharray:none;stroke-opacity:1"
         d="m 851.22094,563.43211 h 87.12785"
         id="path11-1" /></g></g></svg>
