<svg xmlns="http://www.w3.org/2000/svg" width="1200" height="630" viewBox="0 0 1200 630" role="img" aria-labelledby="title desc">
  <title id="title">OpenSimGear social preview</title>
  <desc id="desc">Default social sharing image for OpenSimGear documentation.</desc>
  <defs>
    <linearGradient id="bg" x1="0" y1="0" x2="1" y2="1">
      <stop offset="0%" stop-color="#f8fafc" />
      <stop offset="100%" stop-color="#e2e8f0" />
    </linearGradient>
    <linearGradient id="accent" x1="0" y1="0" x2="1" y2="1">
      <stop offset="0%" stop-color="#0f172a" />
      <stop offset="100%" stop-color="#334155" />
    </linearGradient>
  </defs>

  <rect width="1200" height="630" fill="url(#bg)" rx="36" />
  <rect x="54" y="54" width="1092" height="522" fill="url(#accent)" rx="28" />
  <g transform="translate(88 107) scale(3.2)" fill="#f8fafc">
    <path d="M50.4 78.5a75.1 75.1 0 0 0-28.5 6.9l24.2-65.7c.7-2 1.9-3.2 3.4-3.2h29c1.5 0 2.7 1.2 3.4 3.2l24.2 65.7s-11.6-7-28.5-7L67 45.5c-.4-1.7-1.6-2.8-2.9-2.8-1.3 0-2.5 1.1-2.9 2.7L50.4 78.5Zm-1.1 28.2Zm-4.2-20.2c-2 6.6-.6 15.8 4.2 20.2a17.5 17.5 0 0 1 .2-.7 5.5 5.5 0 0 1 5.7-4.5c2.8.1 4.3 1.5 4.7 4.7.2 1.1.2 2.3.2 3.5v.4c0 2.7.7 5.2 2.2 7.4a13 13 0 0 0 5.7 4.9v-.3l-.2-.3c-1.8-5.6-.5-9.5 4.4-12.8l1.5-1a73 73 0 0 0 3.2-2.2 16 16 0 0 0 6.8-11.4c.3-2 .1-4-.6-6l-.8.6-1.6 1a37 37 0 0 1-22.4 2.7c-5-.7-9.7-2-13.2-6.2Z" />
  </g>
  <text x="340" y="234" fill="#f8fafc" font-family="Georgia, 'Times New Roman', serif" font-size="84" font-weight="700" letter-spacing="-2">OpenSimGear</text>
  <text x="340" y="320" fill="#cbd5e1" font-family="'Trebuchet MS', Arial, sans-serif" font-size="34">Open-source simulation hardware docs, tools, and community builds.</text>
  <text x="340" y="382" fill="#94a3b8" font-family="'Trebuchet MS', Arial, sans-serif" font-size="28">opensimgear.org</text>
  <circle cx="1044" cy="142" r="72" fill="#f8fafc" fill-opacity="0.08" />
  <circle cx="1092" cy="206" r="28" fill="#f8fafc" fill-opacity="0.16" />
  <circle cx="1014" cy="470" r="96" fill="#f8fafc" fill-opacity="0.06" />
</svg>
