<svg xmlns="http://www.w3.org/2000/svg" width="1200" height="630" viewBox="0 0 1200 630" role="img" aria-labelledby="title desc">
  <title id="title">OpenSimGear social preview</title>
  <desc id="desc">OpenSimGear documentation for open source simulation hardware.</desc>
  <defs>
    <linearGradient id="bg" x1="0" y1="0" x2="1" y2="1">
      <stop offset="0%" stop-color="#0f1720" />
      <stop offset="100%" stop-color="#1d3140" />
    </linearGradient>
    <linearGradient id="accent" x1="0" y1="0" x2="1" y2="0">
      <stop offset="0%" stop-color="#abd0a5" />
      <stop offset="100%" stop-color="#f2c94c" />
    </linearGradient>
  </defs>
  <rect width="1200" height="630" fill="url(#bg)" />
  <circle cx="1080" cy="108" r="160" fill="#243949" opacity="0.45" />
  <circle cx="1030" cy="520" r="210" fill="#1a2a36" opacity="0.75" />
  <rect x="80" y="96" width="160" height="160" rx="32" fill="url(#accent)" />
  <path d="M140 146h40c30 0 50 18 50 46 0 29-20 47-50 47h-18v39h-22V146zm40 74c18 0 28-9 28-28 0-17-10-26-28-26h-18v54h18z" fill="#10202b" />
  <text x="80" y="352" fill="#f5f7fa" font-family="Arial, sans-serif" font-size="74" font-weight="700">OpenSimGear</text>
  <text x="80" y="430" fill="#d7e0e8" font-family="Arial, sans-serif" font-size="34">Open source sim racing and flight simulation hardware docs</text>
  <text x="80" y="506" fill="#abd0a5" font-family="Arial, sans-serif" font-size="26" letter-spacing="4">CALCULATORS  DOCS  GUIDES</text>
  <rect x="80" y="540" width="320" height="12" rx="6" fill="url(#accent)" />
</svg>
