<?xml version="1.0" encoding="UTF-8" standalone="no"?>
<!-- Generator: Adobe Illustrator 26.3.1, SVG Export Plug-In . SVG Version: 6.00 Build 0)  -->

<svg
   version="1.1"
   x="0px"
   y="0px"
   viewBox="0 0 75.3588867 85.1386032"
   style="enable-background:new 0 0 75.3588867 85.1386032;"
   xml:space="preserve"
   id="svg185"
   sodipodi:docname="40x40.svg"
   inkscape:version="1.4.2 (ebf0e940, 2025-05-08)"
   xmlns:inkscape="http://www.inkscape.org/namespaces/inkscape"
   xmlns:sodipodi="http://sodipodi.sourceforge.net/DTD/sodipodi-0.dtd"
   xmlns="http://www.w3.org/2000/svg"
   xmlns:svg="http://www.w3.org/2000/svg"><defs
   id="defs185" /><sodipodi:namedview
   id="namedview185"
   pagecolor="#ffffff"
   bordercolor="#000000"
   borderopacity="0.25"
   inkscape:showpageshadow="2"
   inkscape:pageopacity="0.0"
   inkscape:pagecheckerboard="0"
   inkscape:deskcolor="#d1d1d1"
   inkscape:zoom="11.040503"
   inkscape:cx="37.634156"
   inkscape:cy="42.570525"
   inkscape:window-width="2504"
   inkscape:window-height="1351"
   inkscape:window-x="45"
   inkscape:window-y="45"
   inkscape:window-maximized="0"
   inkscape:current-layer="svg185" />
<style
   type="text/css"
   id="style1">
	.st0{fill:#E6E6E6;}
	.st1{fill:none;stroke:#000000;stroke-width:0.4;stroke-linecap:round;stroke-miterlimit:10;}
	.st2{fill:none;stroke:#000000;stroke-width:0.25;stroke-linecap:round;stroke-linejoin:round;stroke-miterlimit:10;}
	.st3{fill:#18151A;}
	.st4{fill:none;stroke:#18151A;stroke-width:0.321655;}
	.st5{fill:#FFFFFF;}
	.st6{fill:none;stroke:#18151A;stroke-width:0.257324;}
	.st7{fill:#FFFFFF;stroke:#FFFFFF;stroke-width:0.19299;}
	.st8{fill:none;stroke:#000000;stroke-width:0.25;stroke-linecap:round;stroke-linejoin:round;}
</style>
<g
   id="Kontur">
	<g
   id="ARC_895_">
		<g
   id="XMLID_2_">
			<g
   id="g1">
				<path
   class="st0"
   d="M41.1346779,45.7566299c0-1.4151001-1.148098-2.5632019-2.5765495-2.5632019      c-1.4151001,0-2.5631981,1.1481018-2.5631981,2.5632019c0,1.4284477,1.148098,2.5765495,2.5631981,2.5765495      C39.9865799,48.3331795,41.1346779,47.1850777,41.1346779,45.7566299z M34.5531273,51.4971275      c0.4138527-0.3470993,1.2549019-0.6941986,1.7889023-0.7476006c0.1869011-0.0133476,0.3337479-0.1868973,0.3337479-0.3737984      v-1.1213989c0-0.1201515-0.0800972-0.2670021-0.1735497-0.3204002      c-0.3737984-0.2136002-0.8944473-0.7342491-1.1080475-1.1080513c-0.0667496-0.1068001-0.2002525-0.1735497-0.3204002-0.1735497      h-1.1347504c-0.1869011,0-0.3470993,0.1468506-0.3738022,0.3204002      c-0.0400467,0.5473518-0.3871498,1.3750496-0.7342491,1.7888985c-0.5340004,0.7743034-1.7087994,2.0826035-2.4163494,2.696701      c-0.1602001,0.1468506-0.1602001,0.3871498-0.0266991,0.5340004c0.0133495,0.0133514,0.0133495,0.0133514,0.0133495,0.0133514      l0.9211502,0.9077988c0.1468487,0.1468506,0.3871498,0.1468506,0.5340004,0      C32.4838791,53.2059288,33.7921791,52.0311279,34.5531273,51.4971275z M33.9390297,43.874279h1.1347504      c0.1201477,0,0.2536507-0.080101,0.3204002-0.1735497c0.2136002-0.3738022,0.7342491-0.8944511,1.1080475-1.1080513      c0.0934525-0.0533981,0.1735497-0.2002487,0.1735497-0.3204002v-1.1347504c0-0.1735497-0.1468468-0.3470993-0.3337479-0.3737984      c-0.5340004-0.0400505-1.3750496-0.3871498-1.7889023-0.7342491c-0.7609482-0.5340004-2.0692482-1.7088013-2.6966972-2.4163513      c-0.1335011-0.1468506-0.3738003-0.1601982-0.5340004-0.0133514l-0.9211502,0.9211502      c-0.1468506,0.1468506-0.1468506,0.3871498,0,0.5340004h0.0133495c0.70755,0.6274529,1.882349,1.9357529,2.4163494,2.696701      c0.3470993,0.4272003,0.6942024,1.2548981,0.7342491,1.7888985      C33.5919304,43.7274284,33.7521286,43.874279,33.9390297,43.874279z M46.7149811,53.0056801      c0.1468468-0.1468506,0.1468468-0.3871498,0-0.5340004c0,0,0-0.0133514-0.0133514-0.0133514      c-0.6941986-0.6140976-1.8689995-1.9223976-2.4163513-2.696701c-0.3337479-0.4138489-0.680851-1.2415466-0.7342491-1.7888985      c-0.0266991-0.1735497-0.1869011-0.3204002-0.3737984-0.3204002h-1.1347504      c-0.1068001,0-0.2536507,0.0667496-0.3070526,0.1735497c-0.2269478,0.3738022-0.7476006,0.8944511-1.1080475,1.1080513      c-0.1068001,0.0533981-0.1869011,0.2002487-0.1735497,0.3204002v1.1213989c0,0.1869011,0.1334991,0.3604507,0.3204002,0.3737984      c0.547348,0.0534019,1.3750496,0.4005013,1.7888985,0.7476006c0.7742996,0.5340004,2.0825996,1.7088013,2.696701,2.4163513      c0.1468506,0.1468506,0.3871498,0.1601982,0.5340004,0.0133514c0,0,0.0133476,0,0.0133476-0.0133514L46.7149811,53.0056801z       M46.7016296,39.0549278c0.1601982-0.1334991,0.1735497-0.3737984,0.0266991-0.5340004h-0.0133476l-0.9078026-0.9211502      c-0.1468506-0.1468468-0.3871498-0.1468468-0.5340004,0c0,0.0133514-0.0133476,0.0133514-0.0133476,0.0133514      c-0.6141014,0.70755-1.9224014,1.8823509-2.696701,2.4163513c-0.4138489,0.3470993-1.2415504,0.6941986-1.7888985,0.7342491      c-0.1869011,0.0266991-0.3204002,0.2002487-0.3204002,0.3737984v1.1347504      c-0.0133514,0.1201515,0.0667496,0.2670021,0.1735497,0.3204002c0.3604469,0.2136002,0.8810997,0.7342491,1.1080475,1.1080513      c0.0534019,0.0934486,0.2002525,0.1735497,0.3070526,0.1735497h1.1347504c0.1868973,0,0.3470993-0.1468506,0.3737984-0.3337517      c0.0533981-0.5340004,0.4005013-1.3616982,0.7342491-1.7888985      C44.8326302,40.9906807,46.007431,39.6823807,46.7016296,39.0549278z M24.7542286,37.2927284h2.6700001      c0.4539013-0.0266991,1.1214008,0.2002487,1.4685001,0.4939499c0.0667496,0.0534019,0.2002506,0.160202,0.2803497,0.2136002      c0.1468506,0.1201515,0.3604507,0.1068001,0.4939499-0.0266991l1.0946999-1.1080513      c0.1468506-0.1201477,0.1468506-0.3470993,0.0400505-0.4939499c-0.0667496-0.0667496-0.1735497-0.2136002-0.2269497-0.2803497      c-0.2803497-0.3470993-0.5072994-1.0145988-0.4806004-1.4684982v-2.6566505      c0-0.2136002-0.1735497-0.3738003-0.3738003-0.3871517l-3.2306995-0.0400486      c-1.174799-0.0133514-2.1359997,0.9211502-2.1493492,2.0959511c0,0.0133476,0,0.0400467,0,0.0533981l0.0400486,3.2307014      C24.3804283,37.1191788,24.5539799,37.2927284,24.7542286,37.2927284z M27.4242287,54.2338791h-2.6700001      c-0.2002487,0-0.3738003,0.1601982-0.3738003,0.3737984l-0.0400486,3.2307014      c-0.0133514,1.1614494,0.9211502,2.1226501,2.0959492,2.1360016c0.0133495,0,0.0400505,0,0.0534,0l3.2306995-0.0400505      c0.2002506,0,0.3738003-0.160202,0.3738003-0.3738022v-2.6699982c-0.0266991-0.4405518,0.2002506-1.1080513,0.4806004-1.4551506      c0.0534-0.0667496,0.1602001-0.2136002,0.2269497-0.2803497c0.1068001-0.1468506,0.1068001-0.3738022-0.0400505-0.5073013      l-1.0946999-1.0946999c-0.1334991-0.1334991-0.3470993-0.1468506-0.4939499-0.0266991      c-0.0800991,0.0533981-0.2136002,0.1601982-0.2803497,0.2136002      C28.5456295,54.0336304,27.87813,54.2605782,27.4242287,54.2338791z M50.6932793,31.5388794      c-0.0133514,0-0.0400505,0-0.0534019,0l-3.2306976,0.0400486c-0.2136002,0.0133514-0.3738022,0.1735516-0.3738022,0.3871517      v2.6566505c0.0267029,0.4538994-0.2002487,1.1213989-0.4939499,1.4684982      c-0.0533981,0.0667496-0.1601982,0.2136002-0.2136002,0.2803497c-0.1201477,0.1468506-0.1068001,0.3738022,0.0267029,0.4939499      l1.0946999,1.1080513c0.1334991,0.1334991,0.3604507,0.1468506,0.5072975,0.0266991      c0.0667496-0.0533981,0.2002525-0.1601982,0.2803497-0.2136002c0.3337517-0.2937012,1.0146027-0.520649,1.4551506-0.4939499      h2.670002c0.2002487,0,0.3737984-0.1735497,0.3737984-0.3737984l0.0400505-3.2307014      C52.7892303,32.5134277,51.8547287,31.5522289,50.6932793,31.5388794z M50.6398773,59.9743805      c1.1614532,0.0266991,2.1226501-0.9211502,2.1360016-2.0826035c0-0.0133476,0-0.0400467,0-0.0533981l-0.0400505-3.2307014      c0-0.2136002-0.1735497-0.3737984-0.3737984-0.3737984h-2.670002c-0.4405479,0.0266991-1.1213989-0.2002487-1.4551506-0.4939499      c-0.0800972-0.0534019-0.2136002-0.160202-0.2803497-0.2136002c-0.1468468-0.1201515-0.3737984-0.1068001-0.5072975,0.0266991      l-1.0946999,1.0946999c-0.133503,0.1334991-0.1468506,0.3604507-0.0267029,0.5073013      c0.0534019,0.0667496,0.160202,0.2136002,0.2136002,0.2803497c0.2937012,0.3470993,0.5206528,1.0145988,0.4939499,1.4551506      v2.6699982c0,0.2136002,0.160202,0.3738022,0.3738022,0.3738022L50.6398773,59.9743805z M51.8146782,51.0565796h-1.148098      c-0.2136002,0-0.3871498-0.1735497-0.3871498-0.3738022V49.548027c0-0.4271965,0.3470993-0.7609482,0.7609482-0.7609482      h1.4151001c0.6141014,0,1.1213989,0.4939499,1.1347504,1.1213989l0.0934486,7.9165497c0,0.0133514,0,0.0267029,0,0.0400505      c0,1.6687508-1.3483467,3.0171013-3.0170975,3.0171013c-0.0133514,0-0.0267029,0-0.0400505,0L42.70998,60.7887306      c-0.627449,0-1.1213989-0.5206528-1.1213989-1.1347504v-1.4151001c0-0.4138527,0.3337479-0.7476006,0.7475967-0.7476006      h1.1347504c0.2136002,0,0.3871498,0.1601982,0.3871498,0.3737984v1.1481018c0,0.2002487,0.160202,0.3604507,0.3604507,0.3604507      h0.0133514c1.0412979,0,1.8956985-0.841053,1.8956985-1.8823509v-0.60075      c0.0133514-0.2803497-0.1334991-0.6942024-0.3070488-0.9078026c-0.8143501-1.1614494-2.6299515-2.9636993-3.7914009-3.764698      c-0.4272003-0.3470993-1.2548981-0.627449-1.8156013-0.60075H36.902729      c-0.547348-0.0266991-1.388401,0.2536507-1.8022499,0.60075c-1.1748009,0.8009987-2.9903984,2.6032486-3.791399,3.764698      c-0.1869011,0.2136002-0.3337517,0.6274529-0.3070507,0.9078026v0.60075c0,1.0412979,0.8410492,1.8823509,1.8823509,1.8823509      h0.0133476c0.2002525,0,0.3738022-0.160202,0.3738022-0.3604507V57.865078c0-0.2136002,0.1601982-0.3737984,0.3737984-0.3737984      h1.1347504c0.4138489,0,0.760952,0.3337479,0.760952,0.7476006v1.4151001c0,0.6140976-0.5073013,1.1347504-1.1214027,1.1347504      l-7.9165497,0.0934486c-0.0133495,0-0.0400486,0-0.0400486,0c-1.6687508,0-3.0304508-1.3483505-3.0304508-3.0171013      c0-0.0133476,0-0.0266991,0-0.0400505l0.1068001-7.9165497c0-0.627449,0.5072994-1.1213989,1.1347504-1.1213989h1.4017506      c0.4271984,0,0.7609482,0.3337517,0.7609482,0.7609482v1.1347504c0,0.2002525-0.1735497,0.3738022-0.3737984,0.3738022H25.31493      c-0.2002506,0-0.3738003,0.1601982-0.3738003,0.3604507v0.0133476c0,1.0413017,0.8543987,1.8957024,1.8956985,1.8957024      h0.5874004c0.2803497,0.0133476,0.70755-0.1201515,0.9211502-0.3070526      c1.1480999-0.8143501,2.9503498-2.6299477,3.7513504-3.7913971c0.3604507-0.4272003,0.6408005-1.2549019,0.60075-1.8022499      v-3.3241501c0.0400505-0.5473518-0.2402992-1.3750534-0.60075-1.8022499      c-0.8010006-1.1614532-2.6032505-2.9770508-3.7513504-3.7914009c-0.2136002-0.1869011-0.6408005-0.3204002-0.9211502-0.3070526      h-0.5874004c-1.0412998,0-1.8956985,0.841053-1.8956985,1.8823509v0.0266991      c0,0.2002525,0.1735497,0.3604507,0.3738003,0.3604507h1.1480999c0.2002487,0,0.3737984,0.160202,0.3737984,0.3738022v1.1347504      c0,0.4138489-0.3337498,0.7609482-0.7609482,0.7609482h-1.4017506c-0.6274509,0-1.1347504-0.5073013-1.1347504-1.1213989      L23.432579,33.70158c0-0.0133514,0-0.0267029,0-0.0400505c0-1.6687508,1.3617001-3.0304508,3.0304508-3.0304508      c0,0,0.0266991,0,0.0400486,0l7.9165497,0.1068001c0.6141014,0,1.1214027,0.5072994,1.1214027,1.1347504v1.4150982      c0,0.4138527-0.3471031,0.7476006-0.760952,0.7476006h-1.1347504c-0.2136002,0-0.3737984-0.1601982-0.3737984-0.3737984      v-1.1481018c0-0.2002487-0.1735497-0.3604507-0.3738022-0.3604507h-0.0133476      c-1.0413017,0-1.8823509,0.841053-1.8823509,1.8823509v0.5874023c-0.026701,0.2803497,0.1201496,0.70755,0.3070507,0.9211502      c0.8010006,1.1614494,2.6165981,2.9636993,3.791399,3.764698c0.4138489,0.3470993,1.2549019,0.627449,1.8022499,0.5873985      h3.3107986c0.5607033,0.0400505,1.388401-0.2402992,1.8156013-0.5873985      c1.1614494-0.8009987,2.9770508-2.6032486,3.7914009-3.764698c0.1735497-0.2136002,0.3204002-0.6408005,0.3070488-0.9211502      v-0.5874023c0-1.0412979-0.8544006-1.8823509-1.8956985-1.8823509h-0.0133514      c-0.2002487,0-0.3604507,0.160202-0.3604507,0.3604507v1.1481018c0,0.2136002-0.1735497,0.3737984-0.3871498,0.3737984      h-1.1347504c-0.4138489,0-0.7475967-0.3337479-0.7475967-0.7476006v-1.4150982      c0-0.6274509,0.4939499-1.1347504,1.1213989-1.1347504l7.9165497-0.1068001c0.0133476,0,0.0266991,0,0.0400505,0      c1.6687508,0,3.0170975,1.3617001,3.0170975,3.0304508c0,0.0133476,0,0.0266991,0,0.0400505l-0.0934486,7.9165497      c-0.0133514,0.6140976-0.520649,1.1213989-1.1347504,1.1213989h-1.4151001      c-0.4138489,0-0.7609482-0.3470993-0.7609482-0.7609482v-1.1347504c0-0.2136002,0.1735497-0.3738022,0.3871498-0.3738022      h1.148098c0.2002525,0,0.3604507-0.1601982,0.3604507-0.3604507v-0.0266991      c0-1.0412979-0.8410492-1.8823509-1.8956985-1.8823509H49.692028c-0.2803497-0.0133476-0.6941986,0.1201515-0.9077988,0.3070526      c-1.1614494,0.8143501-2.9636993,2.6299477-3.7647018,3.7914009c-0.3604469,0.4271965-0.627449,1.2548981-0.60075,1.8022499      v3.3241501c-0.0266991,0.547348,0.240303,1.3750496,0.60075,1.8022499      c0.8010025,1.1614494,2.6032524,2.977047,3.7647018,3.7913971c0.2136002,0.1869011,0.627449,0.3204002,0.9077988,0.3070526      h0.5874023c1.0546494,0,1.8956985-0.8544006,1.8956985-1.8957024v-0.0133476      C52.1751289,51.2167778,52.0149307,51.0565796,51.8146782,51.0565796z"
   id="path1" />
			</g>
			<g
   id="g158">
				<line
   class="st1"
   x1="42.70998"
   y1="60.7887306"
   x2="50.6265297"
   y2="60.8821793"
   id="line1" />
				<path
   class="st1"
   d="M41.5885811,59.6539803c0,0.6140976,0.4939499,1.1347504,1.1213989,1.1347504"
   id="path2" />
				<line
   class="st1"
   x1="41.5885811"
   y1="58.2388802"
   x2="41.5885811"
   y2="59.6539803"
   id="line2" />
				<path
   class="st1"
   d="M42.3361778,57.4912796c-0.4138489,0-0.7475967,0.3337479-0.7475967,0.7476006"
   id="path3" />
				<line
   class="st1"
   x1="43.4709282"
   y1="57.4912796"
   x2="42.3361778"
   y2="57.4912796"
   id="line3" />
				<path
   class="st1"
   d="M43.858078,57.865078c0-0.2136002-0.1735497-0.3737984-0.3871498-0.3737984"
   id="path4" />
				<line
   class="st1"
   x1="43.858078"
   y1="59.0131798"
   x2="43.858078"
   y2="57.865078"
   id="line4" />
				<path
   class="st1"
   d="M43.858078,59.0131798c0,0.2002487,0.160202,0.3604507,0.3604507,0.3604507"
   id="path5" />
				<line
   class="st1"
   x1="44.2318802"
   y1="59.3736305"
   x2="44.2185287"
   y2="59.3736305"
   id="line5" />
				<path
   class="st1"
   d="M44.2318802,59.3736305c1.0412979,0,1.8956985-0.841053,1.8956985-1.8823509"
   id="path6" />
				<line
   class="st1"
   x1="46.1275787"
   y1="56.8905296"
   x2="46.1275787"
   y2="57.4912796"
   id="line6" />
				<path
   class="st1"
   d="M46.1275787,56.8905296c0.0133514-0.2803497-0.1334991-0.6942024-0.3070488-0.9078026"
   id="path7" />
				<path
   class="st1"
   d="M45.8205299,55.9827271c-0.8143501-1.1614494-2.6299515-2.9636993-3.7914009-3.764698"
   id="path8" />
				<path
   class="st1"
   d="M42.029129,52.218029c-0.4272003-0.3470993-1.2548981-0.627449-1.8156013-0.60075"
   id="path9" />
				<line
   class="st1"
   x1="36.902729"
   y1="51.6172791"
   x2="40.2135277"
   y2="51.6172791"
   id="line9" />
				<path
   class="st1"
   d="M36.902729,51.6172791c-0.547348-0.0266991-1.388401,0.2536507-1.8022499,0.60075"
   id="path10" />
				<path
   class="st1"
   d="M35.1004791,52.218029c-1.1748009,0.8009987-2.9903984,2.6032486-3.791399,3.764698"
   id="path11" />
				<path
   class="st1"
   d="M31.3090801,55.9827271c-0.1869011,0.2136002-0.3337517,0.6274529-0.3070507,0.9078026"
   id="path12" />
				<line
   class="st1"
   x1="31.0020294"
   y1="57.4912796"
   x2="31.0020294"
   y2="56.8905296"
   id="line12" />
				<path
   class="st1"
   d="M31.0020294,57.4912796c0,1.0412979,0.8410492,1.8823509,1.8823509,1.8823509"
   id="path13" />
				<line
   class="st1"
   x1="32.897728"
   y1="59.3736305"
   x2="32.8843803"
   y2="59.3736305"
   id="line13" />
				<path
   class="st1"
   d="M32.897728,59.3736305c0.2002525,0,0.3738022-0.160202,0.3738022-0.3604507"
   id="path14" />
				<line
   class="st1"
   x1="33.2715302"
   y1="57.865078"
   x2="33.2715302"
   y2="59.0131798"
   id="line14" />
				<path
   class="st1"
   d="M33.6453285,57.4912796c-0.2136002,0-0.3737984,0.1601982-0.3737984,0.3737984"
   id="path15" />
				<line
   class="st1"
   x1="34.7800789"
   y1="57.4912796"
   x2="33.6453285"
   y2="57.4912796"
   id="line15" />
				<path
   class="st1"
   d="M35.5410309,58.2388802c0-0.4138527-0.3471031-0.7476006-0.760952-0.7476006"
   id="path16" />
				<line
   class="st1"
   x1="35.5410309"
   y1="59.6539803"
   x2="35.5410309"
   y2="58.2388802"
   id="line16" />
				<path
   class="st1"
   d="M34.4196281,60.7887306c0.6141014,0,1.1214027-0.5206528,1.1214027-1.1347504"
   id="path17" />
				<line
   class="st1"
   x1="26.5030785"
   y1="60.8821793"
   x2="34.4196281"
   y2="60.7887306"
   id="line17" />
				<path
   class="st1"
   d="M26.4630299,60.8821793c0,0,0.0266991,0,0.0400486,0"
   id="path18" />
				<path
   class="st1"
   d="M23.432579,57.865078c0,1.6687508,1.3617001,3.0171013,3.0304508,3.0171013"
   id="path19" />
				<path
   class="st1"
   d="M23.432579,57.8250275c0,0.0133514,0,0.0267029,0,0.0400505"
   id="path20" />
				<line
   class="st1"
   x1="23.5393791"
   y1="49.9084778"
   x2="23.432579"
   y2="57.8250275"
   id="line20" />
				<path
   class="st1"
   d="M24.6741295,48.7870789c-0.6274509,0-1.1347504,0.4939499-1.1347504,1.1213989"
   id="path21" />
				<line
   class="st1"
   x1="26.0758801"
   y1="48.7870789"
   x2="24.6741295"
   y2="48.7870789"
   id="line21" />
				<path
   class="st1"
   d="M26.8368282,49.548027c0-0.4271965-0.3337498-0.7609482-0.7609482-0.7609482"
   id="path22" />
				<line
   class="st1"
   x1="26.8368282"
   y1="50.6827774"
   x2="26.8368282"
   y2="49.548027"
   id="line22" />
				<path
   class="st1"
   d="M26.4630299,51.0565796c0.2002487,0,0.3737984-0.1735497,0.3737984-0.3738022"
   id="path23" />
				<line
   class="st1"
   x1="25.31493"
   y1="51.0565796"
   x2="26.4630299"
   y2="51.0565796"
   id="line23" />
				<path
   class="st1"
   d="M25.31493,51.0565796c-0.2002506,0-0.3738003,0.1601982-0.3738003,0.3604507"
   id="path24" />
				<line
   class="st1"
   x1="24.9411297"
   y1="51.430378"
   x2="24.9411297"
   y2="51.4170303"
   id="line24" />
				<path
   class="st1"
   d="M24.9411297,51.430378c0,1.0413017,0.8543987,1.8957024,1.8956985,1.8957024"
   id="path25" />
				<line
   class="st1"
   x1="27.4242287"
   y1="53.3260803"
   x2="26.8368282"
   y2="53.3260803"
   id="line25" />
				<path
   class="st1"
   d="M27.4242287,53.3260803c0.2803497,0.0133476,0.70755-0.1201515,0.9211502-0.3070526"
   id="path26" />
				<path
   class="st1"
   d="M28.3453789,53.0190277c1.1480999-0.8143501,2.9503498-2.6299477,3.7513504-3.7913971"
   id="path27" />
				<path
   class="st1"
   d="M32.0967293,49.2276306c0.3604507-0.4272003,0.6408005-1.2549019,0.60075-1.8022499"
   id="path28" />
				<line
   class="st1"
   x1="32.6974792"
   y1="44.1012306"
   x2="32.6974792"
   y2="47.4253807"
   id="line28" />
				<path
   class="st1"
   d="M32.6974792,44.1012306c0.0400505-0.5473518-0.2402992-1.3750534-0.60075-1.8022499"
   id="path29" />
				<path
   class="st1"
   d="M32.0967293,42.2989807c-0.8010006-1.1614532-2.6032505-2.9770508-3.7513504-3.7914009"
   id="path30" />
				<path
   class="st1"
   d="M28.3453789,38.5075798c-0.2136002-0.1869011-0.6408005-0.3204002-0.9211502-0.3070526"
   id="path31" />
				<line
   class="st1"
   x1="26.8368282"
   y1="38.2005272"
   x2="27.4242287"
   y2="38.2005272"
   id="line31" />
				<path
   class="st1"
   d="M26.8368282,38.2005272c-1.0412998,0-1.8956985,0.841053-1.8956985,1.8823509"
   id="path32" />
				<line
   class="st1"
   x1="24.9411297"
   y1="40.1095772"
   x2="24.9411297"
   y2="40.0828781"
   id="line32" />
				<path
   class="st1"
   d="M24.9411297,40.1095772c0,0.2002525,0.1735497,0.3604507,0.3738003,0.3604507"
   id="path33" />
				<line
   class="st1"
   x1="26.4630299"
   y1="40.4700279"
   x2="25.31493"
   y2="40.4700279"
   id="line33" />
				<path
   class="st1"
   d="M26.8368282,40.8438301c0-0.2136002-0.1735497-0.3738022-0.3737984-0.3738022"
   id="path34" />
				<line
   class="st1"
   x1="26.8368282"
   y1="41.9785805"
   x2="26.8368282"
   y2="40.8438301"
   id="line34" />
				<path
   class="st1"
   d="M26.0758801,42.7395287c0.4271984,0,0.7609482-0.3470993,0.7609482-0.7609482"
   id="path35" />
				<line
   class="st1"
   x1="24.6741295"
   y1="42.7395287"
   x2="26.0758801"
   y2="42.7395287"
   id="line35" />
				<path
   class="st1"
   d="M23.5393791,41.6181297c0,0.6140976,0.5072994,1.1213989,1.1347504,1.1213989"
   id="path36" />
				<line
   class="st1"
   x1="23.432579"
   y1="33.70158"
   x2="23.5393791"
   y2="41.6181297"
   id="line36" />
				<path
   class="st1"
   d="M23.432579,33.6615295c0,0.0133476,0,0.0266991,0,0.0400505"
   id="path37" />
				<path
   class="st1"
   d="M26.4630299,30.6310787c-1.6687508,0-3.0304508,1.3617001-3.0304508,3.0304508"
   id="path38" />
				<path
   class="st1"
   d="M26.5030785,30.6310787c-0.0133495,0-0.0400486,0-0.0400486,0"
   id="path39" />
				<line
   class="st1"
   x1="34.4196281"
   y1="30.7378788"
   x2="26.5030785"
   y2="30.6310787"
   id="line39" />
				<path
   class="st1"
   d="M35.5410309,31.8726292c0-0.6274509-0.5073013-1.1347504-1.1214027-1.1347504"
   id="path40" />
				<line
   class="st1"
   x1="35.5410309"
   y1="33.2877274"
   x2="35.5410309"
   y2="31.8726292"
   id="line40" />
				<path
   class="st1"
   d="M34.7800789,34.0353279c0.4138489,0,0.760952-0.3337479,0.760952-0.7476006"
   id="path41" />
				<line
   class="st1"
   x1="33.6453285"
   y1="34.0353279"
   x2="34.7800789"
   y2="34.0353279"
   id="line41" />
				<path
   class="st1"
   d="M33.2715302,33.6615295c0,0.2136002,0.1601982,0.3737984,0.3737984,0.3737984"
   id="path42" />
				<line
   class="st1"
   x1="33.2715302"
   y1="32.5134277"
   x2="33.2715302"
   y2="33.6615295"
   id="line42" />
				<path
   class="st1"
   d="M33.2715302,32.5134277c0-0.2002487-0.1735497-0.3604507-0.3738022-0.3604507"
   id="path43" />
				<line
   class="st1"
   x1="32.8843803"
   y1="32.152977"
   x2="32.897728"
   y2="32.152977"
   id="line43" />
				<path
   class="st1"
   d="M32.8843803,32.152977c-1.0413017,0-1.8823509,0.841053-1.8823509,1.8823509"
   id="path44" />
				<line
   class="st1"
   x1="31.0020294"
   y1="34.6227303"
   x2="31.0020294"
   y2="34.0353279"
   id="line44" />
				<path
   class="st1"
   d="M31.0020294,34.6227303c-0.026701,0.2803497,0.1201496,0.70755,0.3070507,0.9211502"
   id="path45" />
				<path
   class="st1"
   d="M31.3090801,35.5438805c0.8010006,1.1614494,2.6165981,2.9636993,3.791399,3.764698"
   id="path46" />
				<path
   class="st1"
   d="M35.1004791,39.3085785c0.4138489,0.3470993,1.2549019,0.627449,1.8022499,0.5873985"
   id="path47" />
				<line
   class="st1"
   x1="40.2135277"
   y1="39.895977"
   x2="36.902729"
   y2="39.895977"
   id="line47" />
				<path
   class="st1"
   d="M40.2135277,39.895977c0.5607033,0.0400505,1.388401-0.2402992,1.8156013-0.5873985"
   id="path48" />
				<path
   class="st1"
   d="M42.029129,39.3085785c1.1614494-0.8009987,2.9770508-2.6032486,3.7914009-3.764698"
   id="path49" />
				<path
   class="st1"
   d="M45.8205299,35.5438805c0.1735497-0.2136002,0.3204002-0.6408005,0.3070488-0.9211502"
   id="path50" />
				<line
   class="st1"
   x1="46.1275787"
   y1="34.0353279"
   x2="46.1275787"
   y2="34.6227303"
   id="line50" />
				<path
   class="st1"
   d="M46.1275787,34.0353279c0-1.0412979-0.8544006-1.8823509-1.8956985-1.8823509"
   id="path51" />
				<line
   class="st1"
   x1="44.2185287"
   y1="32.152977"
   x2="44.2318802"
   y2="32.152977"
   id="line51" />
				<path
   class="st1"
   d="M44.2185287,32.152977c-0.2002487,0-0.3604507,0.160202-0.3604507,0.3604507"
   id="path52" />
				<line
   class="st1"
   x1="43.858078"
   y1="33.6615295"
   x2="43.858078"
   y2="32.5134277"
   id="line52" />
				<path
   class="st1"
   d="M43.4709282,34.0353279c0.2136002,0,0.3871498-0.1601982,0.3871498-0.3737984"
   id="path53" />
				<line
   class="st1"
   x1="42.3361778"
   y1="34.0353279"
   x2="43.4709282"
   y2="34.0353279"
   id="line53" />
				<path
   class="st1"
   d="M41.5885811,33.2877274c0,0.4138527,0.3337479,0.7476006,0.7475967,0.7476006"
   id="path54" />
				<line
   class="st1"
   x1="41.5885811"
   y1="31.8726292"
   x2="41.5885811"
   y2="33.2877274"
   id="line54" />
				<path
   class="st1"
   d="M42.70998,30.7378788c-0.627449,0-1.1213989,0.5072994-1.1213989,1.1347504"
   id="path55" />
				<line
   class="st1"
   x1="50.6265297"
   y1="30.6310787"
   x2="42.70998"
   y2="30.7378788"
   id="line55" />
				<path
   class="st1"
   d="M50.6665802,30.6310787c-0.0133514,0-0.0267029,0-0.0400505,0"
   id="path56" />
				<path
   class="st1"
   d="M53.6836777,33.6615295c0-1.6687508-1.3483467-3.0304508-3.0170975-3.0304508"
   id="path57" />
				<path
   class="st1"
   d="M53.6836777,33.70158c0-0.0133514,0-0.0267029,0-0.0400505"
   id="path58" />
				<line
   class="st1"
   x1="53.590229"
   y1="41.6181297"
   x2="53.6836777"
   y2="33.70158"
   id="line58" />
				<path
   class="st1"
   d="M52.4554787,42.7395287c0.6141014,0,1.1213989-0.5073013,1.1347504-1.1213989"
   id="path59" />
				<line
   class="st1"
   x1="51.0403786"
   y1="42.7395287"
   x2="52.4554787"
   y2="42.7395287"
   id="line59" />
				<path
   class="st1"
   d="M50.2794304,41.9785805c0,0.4138489,0.3470993,0.7609482,0.7609482,0.7609482"
   id="path60" />
				<line
   class="st1"
   x1="50.2794304"
   y1="40.8438301"
   x2="50.2794304"
   y2="41.9785805"
   id="line60" />
				<path
   class="st1"
   d="M50.6665802,40.4700279c-0.2136002,0-0.3871498,0.160202-0.3871498,0.3738022"
   id="path61" />
				<line
   class="st1"
   x1="51.8146782"
   y1="40.4700279"
   x2="50.6665802"
   y2="40.4700279"
   id="line61" />
				<path
   class="st1"
   d="M51.8146782,40.4700279c0.2002525,0,0.3604507-0.1601982,0.3604507-0.3604507"
   id="path62" />
				<line
   class="st1"
   x1="52.1751289"
   y1="40.0828781"
   x2="52.1751289"
   y2="40.1095772"
   id="line62" />
				<path
   class="st1"
   d="M52.1751289,40.0828781c0-1.0412979-0.8410492-1.8823509-1.8956985-1.8823509"
   id="path63" />
				<line
   class="st1"
   x1="49.692028"
   y1="38.2005272"
   x2="50.2794304"
   y2="38.2005272"
   id="line63" />
				<path
   class="st1"
   d="M49.692028,38.2005272c-0.2803497-0.0133476-0.6941986,0.1201515-0.9077988,0.3070526"
   id="path64" />
				<path
   class="st1"
   d="M48.7842293,38.5075798c-1.1614494,0.8143501-2.9636993,2.6299477-3.7647018,3.7914009"
   id="path65" />
				<path
   class="st1"
   d="M45.0195274,42.2989807c-0.3604469,0.4271965-0.627449,1.2548981-0.60075,1.8022499"
   id="path66" />
				<line
   class="st1"
   x1="44.4187775"
   y1="47.4253807"
   x2="44.4187775"
   y2="44.1012306"
   id="line66" />
				<path
   class="st1"
   d="M44.4187775,47.4253807c-0.0266991,0.547348,0.240303,1.3750496,0.60075,1.8022499"
   id="path67" />
				<path
   class="st1"
   d="M45.0195274,49.2276306c0.8010025,1.1614494,2.6032524,2.977047,3.7647018,3.7913971"
   id="path68" />
				<path
   class="st1"
   d="M48.7842293,53.0190277c0.2136002,0.1869011,0.627449,0.3204002,0.9077988,0.3070526"
   id="path69" />
				<line
   class="st1"
   x1="50.2794304"
   y1="53.3260803"
   x2="49.692028"
   y2="53.3260803"
   id="line69" />
				<path
   class="st1"
   d="M50.2794304,53.3260803c1.0546494,0,1.8956985-0.8544006,1.8956985-1.8957024"
   id="path70" />
				<line
   class="st1"
   x1="52.1751289"
   y1="51.4170303"
   x2="52.1751289"
   y2="51.430378"
   id="line70" />
				<path
   class="st1"
   d="M52.1751289,51.4170303c0-0.2002525-0.1601982-0.3604507-0.3604507-0.3604507"
   id="path71" />
				<line
   class="st1"
   x1="50.6665802"
   y1="51.0565796"
   x2="51.8146782"
   y2="51.0565796"
   id="line71" />
				<path
   class="st1"
   d="M50.2794304,50.6827774c0,0.2002525,0.1735497,0.3738022,0.3871498,0.3738022"
   id="path72" />
				<line
   class="st1"
   x1="50.2794304"
   y1="49.548027"
   x2="50.2794304"
   y2="50.6827774"
   id="line72" />
				<path
   class="st1"
   d="M51.0403786,48.7870789c-0.4138489,0-0.7609482,0.3337517-0.7609482,0.7609482"
   id="path73" />
				<line
   class="st1"
   x1="52.4554787"
   y1="48.7870789"
   x2="51.0403786"
   y2="48.7870789"
   id="line73" />
				<path
   class="st1"
   d="M53.590229,49.9084778c-0.0133514-0.627449-0.520649-1.1213989-1.1347504-1.1213989"
   id="path74" />
				<line
   class="st1"
   x1="53.6836777"
   y1="57.8250275"
   x2="53.590229"
   y2="49.9084778"
   id="line74" />
				<path
   class="st1"
   d="M53.6836777,57.865078c0-0.0133476,0-0.0266991,0-0.0400505"
   id="path75" />
				<path
   class="st1"
   d="M50.6665802,60.8821793c1.6687508,0,3.0170975-1.3483505,3.0170975-3.0171013"
   id="path76" />
				<path
   class="st1"
   d="M50.6265297,60.8821793c0.0133476,0,0.0266991,0,0.0400505,0"
   id="path77" />
				<path
   class="st1"
   d="M41.1346779,45.7566299c0-1.4151001-1.148098-2.5632019-2.5765495-2.5632019      c-1.4151001,0-2.5631981,1.1481018-2.5631981,2.5632019c0,1.4284477,1.148098,2.5765495,2.5631981,2.5765495      C39.9865799,48.3331795,41.1346779,47.1850777,41.1346779,45.7566299z"
   id="path78" />
				<path
   class="st1"
   d="M47.9565277,53.526329c0.0667496,0.0533981,0.2002525,0.1601982,0.2803497,0.2136002"
   id="path79" />
				<path
   class="st1"
   d="M47.9565277,53.526329c-0.1468468-0.1201515-0.3737984-0.1068001-0.5072975,0.0266991"
   id="path80" />
				<line
   class="st1"
   x1="46.3545303"
   y1="54.647728"
   x2="47.4492302"
   y2="53.5530281"
   id="line80" />
				<path
   class="st1"
   d="M46.3545303,54.647728c-0.133503,0.1334991-0.1468506,0.3604507-0.0267029,0.5073013"
   id="path81" />
				<path
   class="st1"
   d="M46.5414276,55.435379c-0.0533981-0.0667496-0.1601982-0.2136002-0.2136002-0.2803497"
   id="path82" />
				<path
   class="st1"
   d="M47.0353775,56.8905296c0.0267029-0.4405518-0.2002487-1.1080513-0.4939499-1.4551506"
   id="path83" />
				<line
   class="st1"
   x1="47.0353775"
   y1="59.5605278"
   x2="47.0353775"
   y2="56.8905296"
   id="line83" />
				<path
   class="st1"
   d="M47.0353775,59.5605278c0,0.2136002,0.160202,0.3738022,0.3738022,0.3738022"
   id="path84" />
				<line
   class="st1"
   x1="50.6398773"
   y1="59.9743805"
   x2="47.4091797"
   y2="59.93433"
   id="line84" />
				<path
   class="st1"
   d="M50.6398773,59.9743805c1.1614532,0.0266991,2.1226501-0.9211502,2.1360016-2.0826035      c0-0.0133476,0-0.0400467,0-0.0533981"
   id="path85" />
				<line
   class="st1"
   x1="52.7358284"
   y1="54.6076775"
   x2="52.7758789"
   y2="57.8383789"
   id="line85" />
				<path
   class="st1"
   d="M52.7358284,54.6076775c0-0.2136002-0.1735497-0.3737984-0.3737984-0.3737984"
   id="path86" />
				<line
   class="st1"
   x1="49.692028"
   y1="54.2338791"
   x2="52.36203"
   y2="54.2338791"
   id="line86" />
				<path
   class="st1"
   d="M48.2368774,53.7399292c0.3337517,0.2937012,1.0146027,0.520649,1.4551506,0.4939499"
   id="path87" />
				<path
   class="st1"
   d="M46.7149811,53.0056801c0.1468468-0.1468506,0.1468468-0.3871498,0-0.5340004      c0,0,0-0.0133514-0.0133514-0.0133514"
   id="path88" />
				<path
   class="st1"
   d="M44.2852783,49.7616272c0.5473518,0.7743034,1.7221527,2.0826035,2.4163513,2.696701"
   id="path89" />
				<path
   class="st1"
   d="M43.5510292,47.9727287c0.0533981,0.5473518,0.4005013,1.3750496,0.7342491,1.7888985"
   id="path90" />
				<path
   class="st1"
   d="M43.5510292,47.9727287c-0.0266991-0.1735497-0.1869011-0.3204002-0.3737984-0.3204002"
   id="path91" />
				<line
   class="st1"
   x1="42.0424805"
   y1="47.6523285"
   x2="43.1772308"
   y2="47.6523285"
   id="line91" />
				<path
   class="st1"
   d="M42.0424805,47.6523285c-0.1068001,0-0.2536507,0.0667496-0.3070526,0.1735497"
   id="path92" />
				<path
   class="st1"
   d="M40.6273804,48.9339294c0.3604469-0.2136002,0.8810997-0.7342491,1.1080475-1.1080513"
   id="path93" />
				<path
   class="st1"
   d="M40.6273804,48.9339294c-0.1068001,0.0533981-0.1869011,0.2002487-0.1735497,0.3204002"
   id="path94" />
				<line
   class="st1"
   x1="40.4538307"
   y1="50.3757286"
   x2="40.4538307"
   y2="49.2543297"
   id="line94" />
				<path
   class="st1"
   d="M40.4538307,50.3757286c0,0.1869011,0.1334991,0.3604507,0.3204002,0.3737984"
   id="path95" />
				<path
   class="st1"
   d="M42.5631294,51.4971275c-0.4138489-0.3470993-1.2415504-0.6941986-1.7888985-0.7476006"
   id="path96" />
				<path
   class="st1"
   d="M45.2598305,53.9134789c-0.6141014-0.70755-1.9224014-1.8823509-2.696701-2.4163513"
   id="path97" />
				<path
   class="st1"
   d="M45.2598305,53.9134789c0.1468506,0.1468506,0.3871498,0.1601982,0.5340004,0.0133514      c0,0,0.0133476,0,0.0133476-0.0133514"
   id="path98" />
				<line
   class="st1"
   x1="46.7149811"
   y1="53.0056801"
   x2="45.8071785"
   y2="53.9134789"
   id="line98" />
				<path
   class="st1"
   d="M46.3278275,36.3715782c0.0534019-0.0667496,0.160202-0.2136002,0.2136002-0.2803497"
   id="path99" />
				<path
   class="st1"
   d="M46.3278275,36.3715782c-0.1201477,0.1468506-0.1068001,0.3738022,0.0267029,0.4939499"
   id="path100" />
				<line
   class="st1"
   x1="47.4492302"
   y1="37.9735794"
   x2="46.3545303"
   y2="36.8655281"
   id="line100" />
				<path
   class="st1"
   d="M47.4492302,37.9735794c0.1334991,0.1334991,0.3604507,0.1468506,0.5072975,0.0266991"
   id="path101" />
				<path
   class="st1"
   d="M48.2368774,37.7866783c-0.0800972,0.0534019-0.2136002,0.160202-0.2803497,0.2136002"
   id="path102" />
				<path
   class="st1"
   d="M49.692028,37.2927284c-0.4405479-0.0266991-1.1213989,0.2002487-1.4551506,0.4939499"
   id="path103" />
				<line
   class="st1"
   x1="52.36203"
   y1="37.2927284"
   x2="49.692028"
   y2="37.2927284"
   id="line103" />
				<path
   class="st1"
   d="M52.36203,37.2927284c0.2002487,0,0.3737984-0.1735497,0.3737984-0.3737984"
   id="path104" />
				<line
   class="st1"
   x1="52.7758789"
   y1="33.6882286"
   x2="52.7358284"
   y2="36.9189301"
   id="line104" />
				<path
   class="st1"
   d="M52.7758789,33.6882286c0.0133514-1.1748009-0.9211502-2.1359997-2.0825996-2.1493492      c-0.0133514,0-0.0400505,0-0.0534019,0"
   id="path105" />
				<line
   class="st1"
   x1="47.4091797"
   y1="31.578928"
   x2="50.6398773"
   y2="31.5388794"
   id="line105" />
				<path
   class="st1"
   d="M47.4091797,31.578928c-0.2136002,0.0133514-0.3738022,0.1735516-0.3738022,0.3871517"
   id="path106" />
				<line
   class="st1"
   x1="47.0353775"
   y1="34.6227303"
   x2="47.0353775"
   y2="31.9660797"
   id="line106" />
				<path
   class="st1"
   d="M46.5414276,36.0912285c0.2937012-0.3470993,0.5206528-1.0145988,0.4939499-1.4684982"
   id="path107" />
				<path
   class="st1"
   d="M45.8071785,37.5997772c-0.1468506-0.1468468-0.3871498-0.1468468-0.5340004,0      c0,0.0133514-0.0133476,0.0133514-0.0133476,0.0133514"
   id="path108" />
				<path
   class="st1"
   d="M42.5631294,40.02948c0.7742996-0.5340004,2.0825996-1.7088013,2.696701-2.4163513"
   id="path109" />
				<path
   class="st1"
   d="M40.774231,40.7637291c0.547348-0.0400505,1.3750496-0.3871498,1.7888985-0.7342491"
   id="path110" />
				<path
   class="st1"
   d="M40.774231,40.7637291c-0.1869011,0.0266991-0.3204002,0.2002487-0.3204002,0.3737984"
   id="path111" />
				<line
   class="st1"
   x1="40.4538307"
   y1="42.2722778"
   x2="40.4538307"
   y2="41.1375275"
   id="line111" />
				<path
   class="st1"
   d="M40.4538307,42.2722778c-0.0133514,0.1201515,0.0667496,0.2670021,0.1735497,0.3204002"
   id="path112" />
				<path
   class="st1"
   d="M41.7354279,43.7007294c-0.2269478-0.3738022-0.7476006-0.8944511-1.1080475-1.1080513"
   id="path113" />
				<path
   class="st1"
   d="M41.7354279,43.7007294c0.0534019,0.0934486,0.2002525,0.1735497,0.3070526,0.1735497"
   id="path114" />
				<line
   class="st1"
   x1="43.1772308"
   y1="43.874279"
   x2="42.0424805"
   y2="43.874279"
   id="line114" />
				<path
   class="st1"
   d="M43.1772308,43.874279c0.1868973,0,0.3470993-0.1468506,0.3737984-0.3337517"
   id="path115" />
				<path
   class="st1"
   d="M44.2852783,41.7516289c-0.3337479,0.4272003-0.680851,1.2548981-0.7342491,1.7888985"
   id="path116" />
				<path
   class="st1"
   d="M46.7016296,39.0549278c-0.6941986,0.6274529-1.8689995,1.9357529-2.4163513,2.696701"
   id="path117" />
				<path
   class="st1"
   d="M46.7016296,39.0549278c0.1601982-0.1334991,0.1735497-0.3737984,0.0266991-0.5340004h-0.0133476"
   id="path118" />
				<line
   class="st1"
   x1="45.8071785"
   y1="37.5997772"
   x2="46.7149811"
   y2="38.5209274"
   id="line118" />
				<path
   class="st1"
   d="M29.1730785,38.0002785c-0.0800991-0.0533981-0.2136002-0.1601982-0.2803497-0.2136002"
   id="path119" />
				<path
   class="st1"
   d="M29.1730785,38.0002785c0.1468506,0.1201515,0.3604507,0.1068001,0.4939499-0.0266991"
   id="path120" />
				<line
   class="st1"
   x1="30.7617283"
   y1="36.8655281"
   x2="29.6670284"
   y2="37.9735794"
   id="line120" />
				<path
   class="st1"
   d="M30.7617283,36.8655281c0.1468506-0.1201477,0.1468506-0.3470993,0.0400505-0.4939499"
   id="path121" />
				<path
   class="st1"
   d="M30.5748291,36.0912285c0.0534,0.0667496,0.1602001,0.2136002,0.2269497,0.2803497"
   id="path122" />
				<path
   class="st1"
   d="M30.0942287,34.6227303c-0.0266991,0.4538994,0.2002506,1.1213989,0.4806004,1.4684982"
   id="path123" />
				<line
   class="st1"
   x1="30.0942287"
   y1="31.9660797"
   x2="30.0942287"
   y2="34.6227303"
   id="line123" />
				<path
   class="st1"
   d="M30.0942287,31.9660797c0-0.2136002-0.1735497-0.3738003-0.3738003-0.3871517"
   id="path124" />
				<line
   class="st1"
   x1="26.4897289"
   y1="31.5388794"
   x2="29.7204285"
   y2="31.578928"
   id="line124" />
				<path
   class="st1"
   d="M26.4897289,31.5388794c-1.174799-0.0133514-2.1359997,0.9211502-2.1493492,2.0959511      c0,0.0133476,0,0.0400467,0,0.0533981"
   id="path125" />
				<line
   class="st1"
   x1="24.3804283"
   y1="36.9189301"
   x2="24.3403797"
   y2="33.6882286"
   id="line125" />
				<path
   class="st1"
   d="M24.3804283,36.9189301c0,0.2002487,0.1735516,0.3737984,0.3738003,0.3737984"
   id="path126" />
				<line
   class="st1"
   x1="27.4242287"
   y1="37.2927284"
   x2="24.7542286"
   y2="37.2927284"
   id="line126" />
				<path
   class="st1"
   d="M28.8927288,37.7866783c-0.3470993-0.2937012-1.0145988-0.520649-1.4685001-0.4939499"
   id="path127" />
				<path
   class="st1"
   d="M30.4012794,38.5209274c-0.1468506,0.1468506-0.1468506,0.3871498,0,0.5340004h0.0133495"
   id="path128" />
				<path
   class="st1"
   d="M32.8309784,41.7516289c-0.5340004-0.7609482-1.7087994-2.0692482-2.4163494-2.696701"
   id="path129" />
				<path
   class="st1"
   d="M33.5652275,43.5405273c-0.0400467-0.5340004-0.3871498-1.3616982-0.7342491-1.7888985"
   id="path130" />
				<path
   class="st1"
   d="M33.5652275,43.5405273c0.0267029,0.1869011,0.1869011,0.3337517,0.3738022,0.3337517"
   id="path131" />
				<line
   class="st1"
   x1="35.0737801"
   y1="43.874279"
   x2="33.9390297"
   y2="43.874279"
   id="line131" />
				<path
   class="st1"
   d="M35.0737801,43.874279c0.1201477,0,0.2536507-0.080101,0.3204002-0.1735497"
   id="path132" />
				<path
   class="st1"
   d="M36.5022278,42.5926781c-0.3737984,0.2136002-0.8944473,0.7342491-1.1080475,1.1080513"
   id="path133" />
				<path
   class="st1"
   d="M36.5022278,42.5926781c0.0934525-0.0533981,0.1735497-0.2002487,0.1735497-0.3204002"
   id="path134" />
				<line
   class="st1"
   x1="36.6757774"
   y1="41.1375275"
   x2="36.6757774"
   y2="42.2722778"
   id="line134" />
				<path
   class="st1"
   d="M36.6757774,41.1375275c0-0.1735497-0.1468468-0.3470993-0.3337479-0.3737984"
   id="path135" />
				<path
   class="st1"
   d="M34.5531273,40.02948c0.4138527,0.3470993,1.2549019,0.6941986,1.7889023,0.7342491"
   id="path136" />
				<path
   class="st1"
   d="M31.8564301,37.6131287c0.627449,0.70755,1.9357491,1.8823509,2.6966972,2.4163513"
   id="path137" />
				<path
   class="st1"
   d="M31.8564301,37.6131287c-0.1335011-0.1468506-0.3738003-0.1601982-0.5340004-0.0133514"
   id="path138" />
				<line
   class="st1"
   x1="30.4012794"
   y1="38.5209274"
   x2="31.3224297"
   y2="37.5997772"
   id="line138" />
				<path
   class="st1"
   d="M30.8017788,55.1550293c-0.0667496,0.0667496-0.1735497,0.2136002-0.2269497,0.2803497"
   id="path139" />
				<path
   class="st1"
   d="M30.8017788,55.1550293c0.1068001-0.1468506,0.1068001-0.3738022-0.0400505-0.5073013"
   id="path140" />
				<line
   class="st1"
   x1="29.6670284"
   y1="53.5530281"
   x2="30.7617283"
   y2="54.647728"
   id="line140" />
				<path
   class="st1"
   d="M29.6670284,53.5530281c-0.1334991-0.1334991-0.3470993-0.1468506-0.4939499-0.0266991"
   id="path141" />
				<path
   class="st1"
   d="M28.8927288,53.7399292c0.0667496-0.0534019,0.2002506-0.160202,0.2803497-0.2136002"
   id="path142" />
				<path
   class="st1"
   d="M27.4242287,54.2338791c0.4539013,0.0266991,1.1214008-0.2002487,1.4685001-0.4939499"
   id="path143" />
				<line
   class="st1"
   x1="24.7542286"
   y1="54.2338791"
   x2="27.4242287"
   y2="54.2338791"
   id="line143" />
				<path
   class="st1"
   d="M24.7542286,54.2338791c-0.2002487,0-0.3738003,0.1601982-0.3738003,0.3737984"
   id="path144" />
				<line
   class="st1"
   x1="24.3403797"
   y1="57.8383789"
   x2="24.3804283"
   y2="54.6076775"
   id="line144" />
				<path
   class="st1"
   d="M24.3403797,57.8383789c-0.0133514,1.1614494,0.9211502,2.1226501,2.0959492,2.1360016      c0.0133495,0,0.0400505,0,0.0534,0"
   id="path145" />
				<line
   class="st1"
   x1="29.7204285"
   y1="59.93433"
   x2="26.4897289"
   y2="59.9743805"
   id="line145" />
				<path
   class="st1"
   d="M29.7204285,59.93433c0.2002506,0,0.3738003-0.160202,0.3738003-0.3738022"
   id="path146" />
				<line
   class="st1"
   x1="30.0942287"
   y1="56.8905296"
   x2="30.0942287"
   y2="59.5605278"
   id="line146" />
				<path
   class="st1"
   d="M30.5748291,55.435379c-0.2803497,0.3470993-0.5072994,1.0145988-0.4806004,1.4551506"
   id="path147" />
				<path
   class="st1"
   d="M31.3224297,53.9134789c0.1468487,0.1468506,0.3871498,0.1468506,0.5340004,0"
   id="path148" />
				<path
   class="st1"
   d="M34.5531273,51.4971275c-0.7609482,0.5340004-2.0692482,1.7088013-2.6966972,2.4163513"
   id="path149" />
				<path
   class="st1"
   d="M36.3420296,50.749527c-0.5340004,0.0534019-1.3750496,0.4005013-1.7889023,0.7476006"
   id="path150" />
				<path
   class="st1"
   d="M36.3420296,50.749527c0.1869011-0.0133476,0.3337479-0.1868973,0.3337479-0.3737984"
   id="path151" />
				<line
   class="st1"
   x1="36.6757774"
   y1="49.2543297"
   x2="36.6757774"
   y2="50.3757286"
   id="line151" />
				<path
   class="st1"
   d="M36.6757774,49.2543297c0-0.1201515-0.0800972-0.2670021-0.1735497-0.3204002"
   id="path152" />
				<path
   class="st1"
   d="M35.3941803,47.8258781c0.2136002,0.3738022,0.7342491,0.8944511,1.1080475,1.1080513"
   id="path153" />
				<path
   class="st1"
   d="M35.3941803,47.8258781c-0.0667496-0.1068001-0.2002525-0.1735497-0.3204002-0.1735497"
   id="path154" />
				<line
   class="st1"
   x1="33.9390297"
   y1="47.6523285"
   x2="35.0737801"
   y2="47.6523285"
   id="line154" />
				<path
   class="st1"
   d="M33.9390297,47.6523285c-0.1869011,0-0.3470993,0.1468506-0.3738022,0.3204002"
   id="path155" />
				<path
   class="st1"
   d="M32.8309784,49.7616272c0.3470993-0.4138489,0.6942024-1.2415466,0.7342491-1.7888985"
   id="path156" />
				<path
   class="st1"
   d="M30.414629,52.4583282c0.70755-0.6140976,1.882349-1.9223976,2.4163494-2.696701"
   id="path157" />
				<path
   class="st1"
   d="M30.414629,52.4583282c-0.1602001,0.1468506-0.1602001,0.3871498-0.0266991,0.5340004      c0.0133495,0.0133514,0.0133495,0.0133514,0.0133495,0.0133514"
   id="path158" />
				<line
   class="st1"
   x1="31.3224297"
   y1="53.9134789"
   x2="30.4012794"
   y2="53.0056801"
   id="line158" />
			</g>
		</g>
	</g>
</g>

</svg>
