<?xml version="1.0" encoding="UTF-8" standalone="no"?>
<!-- Generator: Adobe Illustrator 26.3.1, SVG Export Plug-In . SVG Version: 6.00 Build 0)  -->

<svg
   version="1.1"
   x="0px"
   y="0px"
   viewBox="0 0 100.4907227 96.4239044"
   style="enable-background:new 0 0 100.4907227 96.4239044;"
   xml:space="preserve"
   id="svg164"
   sodipodi:docname="80x40.svg"
   inkscape:version="1.4.2 (ebf0e940, 2025-05-08)"
   xmlns:inkscape="http://www.inkscape.org/namespaces/inkscape"
   xmlns:sodipodi="http://sodipodi.sourceforge.net/DTD/sodipodi-0.dtd"
   xmlns="http://www.w3.org/2000/svg"
   xmlns:svg="http://www.w3.org/2000/svg"><defs
   id="defs164" /><sodipodi:namedview
   id="namedview164"
   pagecolor="#ffffff"
   bordercolor="#000000"
   borderopacity="0.25"
   inkscape:showpageshadow="2"
   inkscape:pageopacity="0.0"
   inkscape:pagecheckerboard="0"
   inkscape:deskcolor="#d1d1d1"
   inkscape:zoom="8.2793712"
   inkscape:cx="50.305752"
   inkscape:cy="48.192065"
   inkscape:window-width="2504"
   inkscape:window-height="1351"
   inkscape:window-x="45"
   inkscape:window-y="45"
   inkscape:window-maximized="0"
   inkscape:current-layer="svg164" />
<style
   type="text/css"
   id="style1">
	.st0{fill:#E6E6E6;}
	.st1{fill:none;stroke:#000000;stroke-width:0.4;stroke-linecap:round;stroke-miterlimit:10;}
	.st2{fill:none;stroke:#000000;stroke-width:0.25;stroke-linecap:round;stroke-linejoin:round;stroke-miterlimit:10;}
	.st3{fill:none;stroke:#000000;stroke-width:0.321655;}
	.st4{fill:#FFFFFF;}
	.st5{fill:none;stroke:#000000;stroke-width:0.257324;}
	.st6{fill:#FFFFFF;stroke:#FFFFFF;stroke-width:0.19299;}
	.st7{fill:none;stroke:#000000;stroke-width:0.25;stroke-linecap:round;stroke-linejoin:round;}
</style>
<g
   id="Kontur">
	<g
   id="ARC_1_">
		<g
   id="XMLID_1_">
			<g
   id="g1">
				<path
   class="st0"
   d="M78.9024277,69.1824341c0,0.0133514,0,0.0267029,0,0.0400543      c0,1.6687469-1.361702,3.0170975-3.0304565,3.0170975c0,0-0.0266953,0-0.0400467,0l-7.9031982-0.0934525      c-0.6141052-0.0133514-1.1213989-0.5206451-1.1213989-1.1481018V69.596283c0-0.4138489,0.3337479-0.7609482,0.7475967-0.7609482      h1.1347504c0.2136002,0,0.3871536,0.1735535,0.3871536,0.3871536v1.1614456c0,0.2002487,0.146843,0.3470993,0.3337479,0.3470993      h0.0400467c1.0413055,0,1.8956985-0.8410492,1.8956985-1.8956985V67.847435      c0.0400543-0.8677521-0.4538956-2.0826035-1.1080475-2.6699982l-1.094696-1.0947037      c-0.5874023-0.6541481-1.8022537-1.148098-2.6700058-1.094696h-5.3800468      c-0.8810997-0.0534019-2.0959511,0.4405479-2.670002,1.094696l-1.0946999,1.0947037      c-0.6541481,0.5873947-1.1614494,1.8022461-1.1080475,2.6699982v0.9878998c0,1.0546494,0.8410492,1.8956985,1.8956985,1.8956985      h0.0266991c0.2002525,0,0.3471031-0.1468506,0.3471031-0.3470993v-1.1614456      c0-0.2136002,0.1735497-0.3871536,0.3737984-0.3871536h1.1347504c0.4138489,0,0.7609482,0.3470993,0.7609482,0.7609482      v1.4017487c0,0.6274567-0.5072975,1.1347504-1.1213989,1.1347504l-10.8936005,0.1068039c-0.0400505,0-0.1201477,0-0.1601982,0      L37.6776237,72.132782c-0.6140976,0-1.1080475-0.5072937-1.1080475-1.1213989V69.596283      c0-0.4138489,0.3337479-0.7609482,0.7609482-0.7609482h1.1213989c0.2136002,0,0.3871498,0.1735535,0.3871498,0.3871536      v1.1614456c0,0.2002487,0.1468506,0.3470993,0.3337517,0.3470993h0.0400505      c1.0412979,0,1.8956985-0.8410492,1.8956985-1.8956985V67.847435c0.0534019-0.8677521-0.4538994-2.0826035-1.1080513-2.6699982      l-1.0946999-1.0947037c-0.5873985-0.6541481-1.7888985-1.148098-2.6699982-1.094696h-5.3800507      c-0.8810997-0.0534019-2.0959492,0.4405479-2.6700001,1.094696l-1.0946999,1.0947037      c-0.65415,0.5873947-1.1614494,1.8022461-1.1080494,2.6699982v0.9878998c0,1.0546494,0.8544006,1.8956985,1.8957005,1.8956985      h0.0400486c0.1869011,0,0.3337517-0.1468506,0.3337517-0.3470993v-1.1614456      c0-0.2136002,0.1735497-0.3871536,0.3737984-0.3871536h1.1347504c0.4272003,0,0.7609501,0.3470993,0.7609501,0.7609482      v1.4151001c0,0.6141052-0.5072994,1.1213989-1.1213989,1.1347504l-7.9165516,0.0934525c0,0-0.0266991,0-0.0400486,0      c-1.6687508,0-3.0171013-1.3483505-3.0171013-3.0170975c0-0.0133514,0-0.0267029,0-0.0400543l0.0934505-7.9165497      c0.0133495-0.6140976,0.5206509-1.1213989,1.1347504-1.1213989h1.4151001c0.4138489,0,0.7609501,0.3470993,0.7609501,0.7609482      v1.1347504c0,0.2002525-0.1735497,0.3738022-0.3871498,0.3738022h-1.1614513      c-0.1868992,0-0.3470993,0.1468506-0.3470993,0.3470993v0.0266991c0,1.0546494,0.8544006,1.8957024,1.8957005,1.8957024      h0.9878998c0.8677502,0.0533981,2.0825996-0.4539032,2.6700001-1.1080513l1.0946999-1.0946999      c0.65415-0.5740509,1.1480999-1.7889023,1.1080494-2.670002V54.430687      c0.0400505-0.8677521-0.4538994-2.0826035-1.1080494-2.670002l-1.0946999-1.0946999      c-0.5874004-0.6541481-1.8022499-1.148098-2.6700001-1.0946999h-0.9878998      c-1.0412998,0-1.8957005,0.8410492-1.8957005,1.8823509v0.0400505c0,0.1868973,0.1602001,0.3337479,0.3470993,0.3337479      h1.1614513c0.2136002,0,0.3871498,0.1735497,0.3871498,0.3871498v1.1347504      c0,0.4138489-0.3471012,0.7476006-0.7609501,0.7476006h-1.4151001c-0.6140995,0-1.1214008-0.4939499-1.1347504-1.1213989      l-0.0934505-7.9032021c0-0.0133476,0-0.0400505,0-0.0400505c0-1.6687469,1.3483505-3.0304489,3.0171013-3.0304489      c0.0133495,0,0.0400486,0,0.0400486,0l7.9165516,0.1068001c0.6140995,0,1.1213989,0.5073013,1.1213989,1.1347504v1.4017487      c0,0.4272003-0.3337498,0.760952-0.7609501,0.760952h-1.1347504c-0.2002487,0-0.3737984-0.1735497-0.3737984-0.3738022      v-1.1747971c0-0.1869011-0.1468506-0.3337517-0.3337517-0.3337517h-0.0400486      c-1.0412998,0-1.8957005,0.8410492-1.8957005,1.8823509v0.9878998c-0.0534,0.8810997,0.4538994,2.0959511,1.1080494,2.6699982      l1.0946999,1.0946999c0.5740509,0.6541519,1.7889004,1.1614532,2.6700001,1.1080513h5.3800507      c0.8810997,0.0534019,2.0825996-0.4538994,2.6699982-1.1080513l1.0946999-1.0946999      c0.6541519-0.5740471,1.1614532-1.7888985,1.1080513-2.6699982V45.406086c0-1.0413017-0.8544006-1.8823509-1.8956985-1.8823509      h-0.0400505c-0.1869011,0-0.3337517,0.1468506-0.3337517,0.3337517v1.1747971      c0,0.2002525-0.1735497,0.3738022-0.3871498,0.3738022h-1.1213989c-0.4272003,0-0.7609482-0.3337517-0.7609482-0.760952      v-1.4017487c0-0.6141014,0.4939499-1.1213989,1.1080475-1.1347504l10.9069519-0.1068001c0.0400505,0,0.1201477,0,0.1601982,0      l10.8936005,0.1068001c0.6141014,0.0133514,1.1213989,0.520649,1.1213989,1.1347504v1.4017487      c0,0.4272003-0.3470993,0.760952-0.7609482,0.760952h-1.1347504c-0.2002487,0-0.3737984-0.1735497-0.3737984-0.3738022      v-1.1747971c0-0.1869011-0.1468506-0.3337517-0.3471031-0.3337517h-0.0266991      c-1.0546494,0-1.8956985,0.8410492-1.8956985,1.8823509v0.9878998      c-0.0534019,0.8810997,0.4538994,2.0959511,1.1080475,2.6699982l1.0946999,1.0946999      c0.5740509,0.6541519,1.7889023,1.1614532,2.670002,1.1080513h5.3800468      c0.8677521,0.0534019,2.0826035-0.4538994,2.6700058-1.1080513l1.094696-1.0946999      c0.6541519-0.5740471,1.1481018-1.7888985,1.1080475-2.6699982V45.406086c0-1.0413017-0.854393-1.8823509-1.8956985-1.8823509      h-0.0400467c-0.1869049,0-0.3337479,0.1468506-0.3337479,0.3337517v1.1747971      c0,0.2002525-0.1735535,0.3738022-0.3871536,0.3738022H67.554924c-0.4138489,0-0.7475967-0.3337517-0.7475967-0.760952      v-1.4017487c0-0.6141014,0.5072937-1.1347504,1.1213989-1.1347504l7.9031982-0.1068001c0.0133514,0,0.0400467,0,0.0400467,0      c1.6687546,0,3.0304565,1.361702,3.0304565,3.0304489c0,0,0,0.0267029,0,0.0400505l-0.1068039,7.9032021      c0,0.627449-0.5073013,1.1213989-1.1347504,1.1213989h-1.4017487c-0.4272003,0-0.7609482-0.3337517-0.7609482-0.7476006      v-1.1347504c0-0.2136002,0.1735458-0.3871498,0.3737946-0.3871498h1.1748047      c0.1868973,0,0.3470993-0.1468506,0.3470993-0.3337479v-0.0400505c0-1.0413017-0.8544006-1.8823509-1.8956985-1.8823509      h-0.9878998c-0.8811035-0.0533981-2.0959549,0.4405518-2.6700058,1.0946999l-1.094696,1.0946999      c-0.6541519,0.5873985-1.1614532,1.8022499-1.1080475,2.670002v5.3800468      c-0.0534058,0.8810997,0.4538956,2.0959511,1.1080475,2.670002l1.094696,1.0946999      c0.5740509,0.6541481,1.7889023,1.1614494,2.6700058,1.1080513h0.9878998c1.0412979,0,1.8956985-0.841053,1.8956985-1.8957024      v-0.0266991c0-0.2002487-0.160202-0.3470993-0.3470993-0.3470993h-1.1748047      c-0.2002487,0-0.3737946-0.1735497-0.3737946-0.3738022v-1.1347504c0-0.4138489,0.3337479-0.7609482,0.7609482-0.7609482      h1.4017487c0.627449,0,1.1347504,0.5073013,1.1347504,1.1213989L78.9024277,69.1824341z M77.5407257,69.3292847v-2.8168488      v-0.0934525c0-0.2002487-0.1735535-0.3737946-0.3738022-0.3737946h-4.0850983      c-0.2136002,0-0.3871536,0.1735458-0.3871536,0.3737946v0.0934525v3.9649506      c0,0.2136002,0.1735535,0.3738022,0.3871536,0.3738022l3.1639481-0.0400543      c0.6808548-0.1334991,1.2548981-0.7876511,1.281601-1.4818497H77.5407257z M77.5407257,47.8224335v-2.7634468      c0-0.9211502-0.7476044-1.6687508-1.6687546-1.6687508h-2.7901459c-0.2136002,0-0.3871536,0.1735497-0.3871536,0.3737984      v4.0583992c0,0.2136002,0.1735535,0.3871536,0.3871536,0.3871536h4.0850983      C77.3671722,48.2095871,77.5407257,48.0360336,77.5407257,47.8224335z M66.3534241,57.1273842      c0-1.4284477-1.1481018-2.5765495-2.5765495-2.5765495c-1.4151001,0-2.5632019,1.1481018-2.5632019,2.5765495      c0,1.4151001,1.1481018,2.5632019,2.5632019,2.5632019C65.2053223,59.6905861,66.3534241,58.5424843,66.3534241,57.1273842z       M56.8215256,62.4807358c0.6541481-0.5740509,1.148098-1.7889023,1.0946999-2.670002V54.430687      c0.0533981-0.8677521-0.4405518-2.0826035-1.0946999-2.670002l-0.8544006-0.8410492      c-0.6541519-0.5873985-1.1614494-1.8022499-1.1080513-2.6833496V45.406086c0-1.0413017-0.8410492-1.8823509-1.8823509-1.8823509      H44.352623c-1.0412979,0-1.8823471,0.8410492-1.8823471,1.8823509v2.8302002      c0.0400505,0.8810997-0.4539032,2.0959511-1.1080513,2.6833496l-0.8544006,0.8410492      c-0.6541481,0.5873985-1.1614494,1.8022499-1.1080513,2.670002v5.3800468      c-0.0533981,0.8810997,0.4539032,2.0959511,1.1080513,2.670002l0.8544006,0.8544006      c0.6541481,0.5873985,1.1481018,1.7889023,1.1080513,2.6699982v2.8302002c0,1.0546494,0.8410492,1.8956985,1.8823471,1.8956985      h8.6240997c1.0413017,0,1.8823509-0.8410492,1.8823509-1.8956985v-2.8302002      c-0.0533981-0.8810959,0.4538994-2.0825996,1.1080513-2.6699982L56.8215256,62.4807358z M36.1156731,57.1273842      c0-1.4284477-1.148098-2.5765495-2.5765495-2.5765495c-1.4151001,0-2.5631981,1.1481018-2.5631981,2.5765495      c0,1.4151001,1.148098,2.5632019,2.5631981,2.5632019C34.9675751,59.6905861,36.1156731,58.5424843,36.1156731,57.1273842z       M24.6213245,70.4773865v-4.058403c0-0.2002487-0.1602001-0.3737946-0.3738003-0.3737946h-4.0851002      c-0.2002487,0-0.3738003,0.1735458-0.3738003,0.3737946v2.7768021c0,0.9211502,0.7476006,1.6554031,1.6554012,1.6554031      h2.8034992C24.4611244,70.8511887,24.6213245,70.6909866,24.6213245,70.4773865z M24.6213245,47.8224335v-4.0583992      c0-0.2002487-0.1602001-0.3737984-0.3738003-0.3737984H21.444025c-0.9078007,0-1.6554012,0.7476006-1.6554012,1.6687508      v2.7634468c0,0.2136002,0.1735516,0.3871536,0.3738003,0.3871536h4.0851002      C24.4611244,48.2095871,24.6213245,48.0360336,24.6213245,47.8224335z"
   id="path1" />
			</g>
			<g
   id="g130">
				<line
   class="st1"
   x1="78.7956238"
   y1="52.9755363"
   x2="78.9024277"
   y2="45.0723343"
   id="line1" />
				<path
   class="st1"
   d="M77.6608734,54.0969353c0.627449,0,1.1347504-0.4939499,1.1347504-1.1213989"
   id="path2" />
				<line
   class="st1"
   x1="76.2591248"
   y1="54.0969353"
   x2="77.6608734"
   y2="54.0969353"
   id="line2" />
				<path
   class="st1"
   d="M75.4981766,53.3493347c0,0.4138489,0.3337479,0.7476006,0.7609482,0.7476006"
   id="path3" />
				<line
   class="st1"
   x1="75.4981766"
   y1="52.2145844"
   x2="75.4981766"
   y2="53.3493347"
   id="line3" />
				<path
   class="st1"
   d="M75.8719711,51.8274345c-0.2002487,0-0.3737946,0.1735497-0.3737946,0.3871498"
   id="path4" />
				<line
   class="st1"
   x1="77.0467758"
   y1="51.8274345"
   x2="75.8719711"
   y2="51.8274345"
   id="line4" />
				<path
   class="st1"
   d="M77.0467758,51.8274345c0.1868973,0,0.3470993-0.1468506,0.3470993-0.3337479"
   id="path5" />
				<line
   class="st1"
   x1="77.3938751"
   y1="51.4536362"
   x2="77.3938751"
   y2="51.4936867"
   id="line5" />
				<path
   class="st1"
   d="M77.3938751,51.4536362c0-1.0413017-0.8544006-1.8823509-1.8956985-1.8823509"
   id="path6" />
				<line
   class="st1"
   x1="74.5102768"
   y1="49.5712852"
   x2="75.4981766"
   y2="49.5712852"
   id="line6" />
				<path
   class="st1"
   d="M74.5102768,49.5712852c-0.8811035-0.0533981-2.0959549,0.4405518-2.6700058,1.0946999"
   id="path7" />
				<line
   class="st1"
   x1="70.745575"
   y1="51.760685"
   x2="71.840271"
   y2="50.6659851"
   id="line7" />
				<path
   class="st1"
   d="M70.745575,51.760685c-0.6541519,0.5873985-1.1614532,1.8022499-1.1080475,2.670002"
   id="path8" />
				<line
   class="st1"
   x1="69.6375275"
   y1="59.8107338"
   x2="69.6375275"
   y2="54.430687"
   id="line8" />
				<path
   class="st1"
   d="M69.6375275,59.8107338c-0.0534058,0.8810997,0.4538956,2.0959511,1.1080475,2.670002"
   id="path9" />
				<line
   class="st1"
   x1="71.840271"
   y1="63.5754356"
   x2="70.745575"
   y2="62.4807358"
   id="line9" />
				<path
   class="st1"
   d="M71.840271,63.5754356c0.5740509,0.6541481,1.7889023,1.1614494,2.6700058,1.1080513"
   id="path10" />
				<line
   class="st1"
   x1="75.4981766"
   y1="64.6834869"
   x2="74.5102768"
   y2="64.6834869"
   id="line10" />
				<path
   class="st1"
   d="M75.4981766,64.6834869c1.0412979,0,1.8956985-0.841053,1.8956985-1.8957024"
   id="path11" />
				<line
   class="st1"
   x1="77.3938751"
   y1="62.7610855"
   x2="77.3938751"
   y2="62.7877846"
   id="line11" />
				<path
   class="st1"
   d="M77.3938751,62.7610855c0-0.2002487-0.160202-0.3470993-0.3470993-0.3470993"
   id="path12" />
				<line
   class="st1"
   x1="75.8719711"
   y1="62.4139862"
   x2="77.0467758"
   y2="62.4139862"
   id="line12" />
				<path
   class="st1"
   d="M75.4981766,62.040184c0,0.2002525,0.1735458,0.3738022,0.3737946,0.3738022"
   id="path13" />
				<line
   class="st1"
   x1="75.4981766"
   y1="60.9054337"
   x2="75.4981766"
   y2="62.040184"
   id="line13" />
				<path
   class="st1"
   d="M76.2591248,60.1444855c-0.4272003,0-0.7609482,0.3470993-0.7609482,0.7609482"
   id="path14" />
				<line
   class="st1"
   x1="77.6608734"
   y1="60.1444855"
   x2="76.2591248"
   y2="60.1444855"
   id="line14" />
				<path
   class="st1"
   d="M78.7956238,61.2658844c0-0.6140976-0.5073013-1.1213989-1.1347504-1.1213989"
   id="path15" />
				<line
   class="st1"
   x1="78.9024277"
   y1="69.1824341"
   x2="78.7956238"
   y2="61.2658844"
   id="line15" />
				<path
   class="st1"
   d="M78.9024277,69.2224884c0-0.0133514,0-0.0267029,0-0.0400543"
   id="path16" />
				<path
   class="st1"
   d="M75.8719711,72.2395859c1.6687546,0,3.0304565-1.3483505,3.0304565-3.0170975"
   id="path17" />
				<path
   class="st1"
   d="M75.8319244,72.2395859c0.0133514,0,0.0400467,0,0.0400467,0"
   id="path18" />
				<line
   class="st1"
   x1="67.9287262"
   y1="72.1461334"
   x2="75.8319244"
   y2="72.2395859"
   id="line18" />
				<path
   class="st1"
   d="M66.8073273,70.9980316c0,0.6274567,0.5072937,1.1347504,1.1213989,1.1481018"
   id="path19" />
				<line
   class="st1"
   x1="66.8073273"
   y1="69.596283"
   x2="66.8073273"
   y2="70.9980316"
   id="line19" />
				<path
   class="st1"
   d="M67.554924,68.8353348c-0.4138489,0-0.7475967,0.3470993-0.7475967,0.7609482"
   id="path20" />
				<line
   class="st1"
   x1="68.6896744"
   y1="68.8353348"
   x2="67.554924"
   y2="68.8353348"
   id="line20" />
				<path
   class="st1"
   d="M69.076828,69.2224884c0-0.2136002-0.1735535-0.3871536-0.3871536-0.3871536"
   id="path21" />
				<line
   class="st1"
   x1="69.076828"
   y1="70.383934"
   x2="69.076828"
   y2="69.2224884"
   id="line21" />
				<path
   class="st1"
   d="M69.076828,70.383934c0,0.2002487,0.146843,0.3470993,0.3337479,0.3470993"
   id="path22" />
				<line
   class="st1"
   x1="69.4506226"
   y1="70.7310333"
   x2="69.4105759"
   y2="70.7310333"
   id="line22" />
				<path
   class="st1"
   d="M69.4506226,70.7310333c1.0413055,0,1.8956985-0.8410492,1.8956985-1.8956985"
   id="path23" />
				<line
   class="st1"
   x1="71.3463211"
   y1="67.847435"
   x2="71.3463211"
   y2="68.8353348"
   id="line23" />
				<path
   class="st1"
   d="M71.3463211,67.847435c0.0400543-0.8677521-0.4538956-2.0826035-1.1080475-2.6699982"
   id="path24" />
				<line
   class="st1"
   x1="69.1435776"
   y1="64.0827332"
   x2="70.2382736"
   y2="65.1774368"
   id="line24" />
				<path
   class="st1"
   d="M69.1435776,64.0827332c-0.5874023-0.6541481-1.8022537-1.148098-2.6700058-1.094696"
   id="path25" />
				<line
   class="st1"
   x1="61.0935249"
   y1="62.9880371"
   x2="66.4735718"
   y2="62.9880371"
   id="line25" />
				<path
   class="st1"
   d="M61.0935249,62.9880371c-0.8810997-0.0534019-2.0959511,0.4405479-2.670002,1.094696"
   id="path26" />
				<line
   class="st1"
   x1="57.3288231"
   y1="65.1774368"
   x2="58.4235229"
   y2="64.0827332"
   id="line26" />
				<path
   class="st1"
   d="M57.3288231,65.1774368c-0.6541481,0.5873947-1.1614494,1.8022461-1.1080475,2.6699982"
   id="path27" />
				<line
   class="st1"
   x1="56.2207756"
   y1="68.8353348"
   x2="56.2207756"
   y2="67.847435"
   id="line27" />
				<path
   class="st1"
   d="M56.2207756,68.8353348c0,1.0546494,0.8410492,1.8956985,1.8956985,1.8956985"
   id="path28" />
				<line
   class="st1"
   x1="58.1431732"
   y1="70.7310333"
   x2="58.1164742"
   y2="70.7310333"
   id="line28" />
				<path
   class="st1"
   d="M58.1431732,70.7310333c0.2002525,0,0.3471031-0.1468506,0.3471031-0.3470993"
   id="path29" />
				<line
   class="st1"
   x1="58.4902763"
   y1="69.2224884"
   x2="58.4902763"
   y2="70.383934"
   id="line29" />
				<path
   class="st1"
   d="M58.8640747,68.8353348c-0.2002487,0-0.3737984,0.1735535-0.3737984,0.3871536"
   id="path30" />
				<line
   class="st1"
   x1="59.9988251"
   y1="68.8353348"
   x2="58.8640747"
   y2="68.8353348"
   id="line30" />
				<path
   class="st1"
   d="M60.7597733,69.596283c0-0.4138489-0.3470993-0.7609482-0.7609482-0.7609482"
   id="path31" />
				<line
   class="st1"
   x1="60.7597733"
   y1="70.9980316"
   x2="60.7597733"
   y2="69.596283"
   id="line31" />
				<path
   class="st1"
   d="M59.6383743,72.132782c0.6141014,0,1.1213989-0.5072937,1.1213989-1.1347504"
   id="path32" />
				<line
   class="st1"
   x1="48.7447739"
   y1="72.2395859"
   x2="59.6383743"
   y2="72.132782"
   id="line32" />
				<path
   class="st1"
   d="M48.5845757,72.2395859c0.0400505,0,0.1201477,0,0.1601982,0"
   id="path33" />
				<line
   class="st1"
   x1="37.6776237"
   y1="72.132782"
   x2="48.5845757"
   y2="72.2395859"
   id="line33" />
				<path
   class="st1"
   d="M36.5695763,71.0113831c0,0.6141052,0.4939499,1.1213989,1.1080475,1.1213989"
   id="path34" />
				<line
   class="st1"
   x1="36.5695763"
   y1="69.596283"
   x2="36.5695763"
   y2="71.0113831"
   id="line34" />
				<path
   class="st1"
   d="M37.3305244,68.8353348c-0.4272003,0-0.7609482,0.3470993-0.7609482,0.7609482"
   id="path35" />
				<line
   class="st1"
   x1="38.4519234"
   y1="68.8353348"
   x2="37.3305244"
   y2="68.8353348"
   id="line35" />
				<path
   class="st1"
   d="M38.8390732,69.2224884c0-0.2136002-0.1735497-0.3871536-0.3871498-0.3871536"
   id="path36" />
				<line
   class="st1"
   x1="38.8390732"
   y1="70.383934"
   x2="38.8390732"
   y2="69.2224884"
   id="line36" />
				<path
   class="st1"
   d="M38.8390732,70.383934c0,0.2002487,0.1468506,0.3470993,0.3337517,0.3470993"
   id="path37" />
				<line
   class="st1"
   x1="39.2128754"
   y1="70.7310333"
   x2="39.1728249"
   y2="70.7310333"
   id="line37" />
				<path
   class="st1"
   d="M39.2128754,70.7310333c1.0412979,0,1.8956985-0.8410492,1.8956985-1.8956985"
   id="path38" />
				<line
   class="st1"
   x1="41.1085739"
   y1="67.847435"
   x2="41.1085739"
   y2="68.8353348"
   id="line38" />
				<path
   class="st1"
   d="M41.1085739,67.847435c0.0534019-0.8677521-0.4538994-2.0826035-1.1080513-2.6699982"
   id="path39" />
				<line
   class="st1"
   x1="38.9058228"
   y1="64.0827332"
   x2="40.0005226"
   y2="65.1774368"
   id="line39" />
				<path
   class="st1"
   d="M38.9058228,64.0827332c-0.5873985-0.6541481-1.7888985-1.148098-2.6699982-1.094696"
   id="path40" />
				<line
   class="st1"
   x1="30.8557739"
   y1="62.9880371"
   x2="36.2358246"
   y2="62.9880371"
   id="line40" />
				<path
   class="st1"
   d="M30.8557739,62.9880371c-0.8810997-0.0534019-2.0959492,0.4405479-2.6700001,1.094696"
   id="path41" />
				<line
   class="st1"
   x1="27.091074"
   y1="65.1774368"
   x2="28.1857738"
   y2="64.0827332"
   id="line41" />
				<path
   class="st1"
   d="M27.091074,65.1774368c-0.65415,0.5873947-1.1614494,1.8022461-1.1080494,2.6699982"
   id="path42" />
				<line
   class="st1"
   x1="25.9830246"
   y1="68.8353348"
   x2="25.9830246"
   y2="67.847435"
   id="line42" />
				<path
   class="st1"
   d="M25.9830246,68.8353348c0,1.0546494,0.8544006,1.8956985,1.8957005,1.8956985"
   id="path43" />
				<line
   class="st1"
   x1="27.9187737"
   y1="70.7310333"
   x2="27.8787251"
   y2="70.7310333"
   id="line43" />
				<path
   class="st1"
   d="M27.9187737,70.7310333c0.1869011,0,0.3337517-0.1468506,0.3337517-0.3470993"
   id="path44" />
				<line
   class="st1"
   x1="28.2525253"
   y1="69.2224884"
   x2="28.2525253"
   y2="70.383934"
   id="line44" />
				<path
   class="st1"
   d="M28.6263237,68.8353348c-0.2002487,0-0.3737984,0.1735535-0.3737984,0.3871536"
   id="path45" />
				<line
   class="st1"
   x1="29.7610741"
   y1="68.8353348"
   x2="28.6263237"
   y2="68.8353348"
   id="line45" />
				<path
   class="st1"
   d="M30.5220242,69.596283c0-0.4138489-0.3337498-0.7609482-0.7609501-0.7609482"
   id="path46" />
				<line
   class="st1"
   x1="30.5220242"
   y1="71.0113831"
   x2="30.5220242"
   y2="69.596283"
   id="line46" />
				<path
   class="st1"
   d="M29.4006252,72.1461334c0.6140995-0.0133514,1.1213989-0.5206451,1.1213989-1.1347504"
   id="path47" />
				<line
   class="st1"
   x1="21.4840736"
   y1="72.2395859"
   x2="29.4006252"
   y2="72.1461334"
   id="line47" />
				<path
   class="st1"
   d="M21.444025,72.2395859c0.0133495,0,0.0400486,0,0.0400486,0"
   id="path48" />
				<path
   class="st1"
   d="M18.4269238,69.2224884c0,1.6687469,1.3483505,3.0170975,3.0171013,3.0170975"
   id="path49" />
				<path
   class="st1"
   d="M18.4269238,69.1824341c0,0.0133514,0,0.0267029,0,0.0400543"
   id="path50" />
				<line
   class="st1"
   x1="18.4269238"
   y1="69.1824341"
   x2="18.5203743"
   y2="61.2658844"
   id="line50" />
				<path
   class="st1"
   d="M19.6551247,60.1444855c-0.6140995,0-1.1214008,0.5073013-1.1347504,1.1213989"
   id="path51" />
				<line
   class="st1"
   x1="19.6551247"
   y1="60.1444855"
   x2="21.0702248"
   y2="60.1444855"
   id="line51" />
				<path
   class="st1"
   d="M21.8311749,60.9054337c0-0.4138489-0.3471012-0.7609482-0.7609501-0.7609482"
   id="path52" />
				<line
   class="st1"
   x1="21.8311749"
   y1="60.9054337"
   x2="21.8311749"
   y2="62.040184"
   id="line52" />
				<path
   class="st1"
   d="M21.444025,62.4139862c0.2136002,0,0.3871498-0.1735497,0.3871498-0.3738022"
   id="path53" />
				<line
   class="st1"
   x1="21.444025"
   y1="62.4139862"
   x2="20.2825737"
   y2="62.4139862"
   id="line53" />
				<path
   class="st1"
   d="M20.2825737,62.4139862c-0.1868992,0-0.3470993,0.1468506-0.3470993,0.3470993"
   id="path54" />
				<line
   class="st1"
   x1="19.9354744"
   y1="62.7610855"
   x2="19.9354744"
   y2="62.7877846"
   id="line54" />
				<path
   class="st1"
   d="M19.9354744,62.7877846c0,1.0546494,0.8544006,1.8957024,1.8957005,1.8957024"
   id="path55" />
				<line
   class="st1"
   x1="21.8311749"
   y1="64.6834869"
   x2="22.8190746"
   y2="64.6834869"
   id="line55" />
				<path
   class="st1"
   d="M22.8190746,64.6834869c0.8677502,0.0533981,2.0825996-0.4539032,2.6700001-1.1080513"
   id="path56" />
				<line
   class="st1"
   x1="25.4890747"
   y1="63.5754356"
   x2="26.5837746"
   y2="62.4807358"
   id="line56" />
				<path
   class="st1"
   d="M26.5837746,62.4807358c0.65415-0.5740509,1.1480999-1.7889023,1.1080494-2.670002"
   id="path57" />
				<line
   class="st1"
   x1="27.691824"
   y1="59.8107338"
   x2="27.691824"
   y2="54.430687"
   id="line57" />
				<path
   class="st1"
   d="M27.691824,54.430687c0.0400505-0.8677521-0.4538994-2.0826035-1.1080494-2.670002"
   id="path58" />
				<line
   class="st1"
   x1="26.5837746"
   y1="51.760685"
   x2="25.4890747"
   y2="50.6659851"
   id="line58" />
				<path
   class="st1"
   d="M25.4890747,50.6659851c-0.5874004-0.6541481-1.8022499-1.148098-2.6700001-1.0946999"
   id="path59" />
				<line
   class="st1"
   x1="22.8190746"
   y1="49.5712852"
   x2="21.8311749"
   y2="49.5712852"
   id="line59" />
				<path
   class="st1"
   d="M21.8311749,49.5712852c-1.0412998,0-1.8957005,0.8410492-1.8957005,1.8823509"
   id="path60" />
				<line
   class="st1"
   x1="19.9354744"
   y1="51.4536362"
   x2="19.9354744"
   y2="51.4936867"
   id="line60" />
				<path
   class="st1"
   d="M19.9354744,51.4936867c0,0.1868973,0.1602001,0.3337479,0.3470993,0.3337479"
   id="path61" />
				<line
   class="st1"
   x1="20.2825737"
   y1="51.8274345"
   x2="21.444025"
   y2="51.8274345"
   id="line61" />
				<path
   class="st1"
   d="M21.8311749,52.2145844c0-0.2136002-0.1735497-0.3871498-0.3871498-0.3871498"
   id="path62" />
				<line
   class="st1"
   x1="21.8311749"
   y1="52.2145844"
   x2="21.8311749"
   y2="53.3493347"
   id="line62" />
				<path
   class="st1"
   d="M21.0702248,54.0969353c0.4138489,0,0.7609501-0.3337517,0.7609501-0.7476006"
   id="path63" />
				<line
   class="st1"
   x1="21.0702248"
   y1="54.0969353"
   x2="19.6551247"
   y2="54.0969353"
   id="line63" />
				<path
   class="st1"
   d="M18.5203743,52.9755363c0.0133495,0.627449,0.5206509,1.1213989,1.1347504,1.1213989"
   id="path64" />
				<line
   class="st1"
   x1="18.5203743"
   y1="52.9755363"
   x2="18.4269238"
   y2="45.0723343"
   id="line64" />
				<path
   class="st1"
   d="M18.4269238,45.0322838c0,0,0,0.0267029,0,0.0400505"
   id="path65" />
				<path
   class="st1"
   d="M21.444025,42.0018349c-1.6687508,0-3.0171013,1.361702-3.0171013,3.0304489"
   id="path66" />
				<path
   class="st1"
   d="M21.4840736,42.0018349c0,0-0.0266991,0-0.0400486,0"
   id="path67" />
				<line
   class="st1"
   x1="21.4840736"
   y1="42.0018349"
   x2="29.4006252"
   y2="42.1086349"
   id="line67" />
				<path
   class="st1"
   d="M30.5220242,43.2433853c0-0.627449-0.5072994-1.1347504-1.1213989-1.1347504"
   id="path68" />
				<line
   class="st1"
   x1="30.5220242"
   y1="43.2433853"
   x2="30.5220242"
   y2="44.645134"
   id="line68" />
				<path
   class="st1"
   d="M29.7610741,45.406086c0.4272003,0,0.7609501-0.3337517,0.7609501-0.760952"
   id="path69" />
				<line
   class="st1"
   x1="29.7610741"
   y1="45.406086"
   x2="28.6263237"
   y2="45.406086"
   id="line69" />
				<path
   class="st1"
   d="M28.2525253,45.0322838c0,0.2002525,0.1735497,0.3738022,0.3737984,0.3738022"
   id="path70" />
				<line
   class="st1"
   x1="28.2525253"
   y1="45.0322838"
   x2="28.2525253"
   y2="43.8574867"
   id="line70" />
				<path
   class="st1"
   d="M28.2525253,43.8574867c0-0.1869011-0.1468506-0.3337517-0.3337517-0.3337517"
   id="path71" />
				<line
   class="st1"
   x1="27.9187737"
   y1="43.523735"
   x2="27.8787251"
   y2="43.523735"
   id="line71" />
				<line
   class="st1"
   x1="25.9830246"
   y1="45.406086"
   x2="25.9830246"
   y2="46.3939857"
   id="line72" />
				<path
   class="st1"
   d="M25.9830246,46.3939857c-0.0534,0.8810997,0.4538994,2.0959511,1.1080494,2.6699982"
   id="path72" />
				<line
   class="st1"
   x1="27.091074"
   y1="49.0639839"
   x2="28.1857738"
   y2="50.1586838"
   id="line73" />
				<path
   class="st1"
   d="M28.1857738,50.1586838c0.5740509,0.6541519,1.7889004,1.1614532,2.6700001,1.1080513"
   id="path73" />
				<line
   class="st1"
   x1="30.8557739"
   y1="51.2667351"
   x2="36.2358246"
   y2="51.2667351"
   id="line74" />
				<path
   class="st1"
   d="M36.2358246,51.2667351c0.8810997,0.0534019,2.0825996-0.4538994,2.6699982-1.1080513"
   id="path74" />
				<line
   class="st1"
   x1="38.9058228"
   y1="50.1586838"
   x2="40.0005226"
   y2="49.0639839"
   id="line75" />
				<path
   class="st1"
   d="M40.0005226,49.0639839c0.6541519-0.5740471,1.1614532-1.7888985,1.1080513-2.6699982"
   id="path75" />
				<line
   class="st1"
   x1="41.1085739"
   y1="46.3939857"
   x2="41.1085739"
   y2="45.406086"
   id="line76" />
				<path
   class="st1"
   d="M41.1085739,45.406086c0-1.0413017-0.8544006-1.8823509-1.8956985-1.8823509"
   id="path76" />
				<line
   class="st1"
   x1="39.2128754"
   y1="43.523735"
   x2="39.1728249"
   y2="43.523735"
   id="line77" />
				<path
   class="st1"
   d="M39.1728249,43.523735c-0.1869011,0-0.3337517,0.1468506-0.3337517,0.3337517"
   id="path77" />
				<line
   class="st1"
   x1="38.8390732"
   y1="43.8574867"
   x2="38.8390732"
   y2="45.0322838"
   id="line78" />
				<path
   class="st1"
   d="M38.4519234,45.406086c0.2136002,0,0.3871498-0.1735497,0.3871498-0.3738022"
   id="path78" />
				<line
   class="st1"
   x1="38.4519234"
   y1="45.406086"
   x2="37.3305244"
   y2="45.406086"
   id="line79" />
				<path
   class="st1"
   d="M36.5695763,44.645134c0,0.4272003,0.3337479,0.760952,0.7609482,0.760952"
   id="path79" />
				<line
   class="st1"
   x1="36.5695763"
   y1="44.645134"
   x2="36.5695763"
   y2="43.2433853"
   id="line80" />
				<path
   class="st1"
   d="M37.6776237,42.1086349c-0.6140976,0.0133514-1.1080475,0.520649-1.1080475,1.1347504"
   id="path80" />
				<line
   class="st1"
   x1="37.6776237"
   y1="42.1086349"
   x2="48.5845757"
   y2="42.0018349"
   id="line81" />
				<path
   class="st1"
   d="M48.7447739,42.0018349c-0.0400505,0-0.1201477,0-0.1601982,0"
   id="path81" />
				<line
   class="st1"
   x1="48.7447739"
   y1="42.0018349"
   x2="59.6383743"
   y2="42.1086349"
   id="line82" />
				<path
   class="st1"
   d="M60.7597733,43.2433853c0-0.6141014-0.5072975-1.1213989-1.1213989-1.1347504"
   id="path82" />
				<line
   class="st1"
   x1="60.7597733"
   y1="43.2433853"
   x2="60.7597733"
   y2="44.645134"
   id="line83" />
				<path
   class="st1"
   d="M59.9988251,45.406086c0.4138489,0,0.7609482-0.3337517,0.7609482-0.760952"
   id="path83" />
				<line
   class="st1"
   x1="59.9988251"
   y1="45.406086"
   x2="58.8640747"
   y2="45.406086"
   id="line84" />
				<path
   class="st1"
   d="M58.4902763,45.0322838c0,0.2002525,0.1735497,0.3738022,0.3737984,0.3738022"
   id="path84" />
				<line
   class="st1"
   x1="58.4902763"
   y1="45.0322838"
   x2="58.4902763"
   y2="43.8574867"
   id="line85" />
				<path
   class="st1"
   d="M58.4902763,43.8574867c0-0.1869011-0.1468506-0.3337517-0.3471031-0.3337517"
   id="path85" />
				<line
   class="st1"
   x1="58.1431732"
   y1="43.523735"
   x2="58.1164742"
   y2="43.523735"
   id="line86" />
				<path
   class="st1"
   d="M58.1164742,43.523735c-1.0546494,0-1.8956985,0.8410492-1.8956985,1.8823509"
   id="path86" />
				<line
   class="st1"
   x1="56.2207756"
   y1="45.406086"
   x2="56.2207756"
   y2="46.3939857"
   id="line87" />
				<path
   class="st1"
   d="M56.2207756,46.3939857c-0.0534019,0.8810997,0.4538994,2.0959511,1.1080475,2.6699982"
   id="path87" />
				<line
   class="st1"
   x1="57.3288231"
   y1="49.0639839"
   x2="58.4235229"
   y2="50.1586838"
   id="line88" />
				<path
   class="st1"
   d="M58.4235229,50.1586838c0.5740509,0.6541519,1.7889023,1.1614532,2.670002,1.1080513"
   id="path88" />
				<line
   class="st1"
   x1="61.0935249"
   y1="51.2667351"
   x2="66.4735718"
   y2="51.2667351"
   id="line89" />
				<path
   class="st1"
   d="M66.4735718,51.2667351c0.8677521,0.0534019,2.0826035-0.4538994,2.6700058-1.1080513"
   id="path89" />
				<line
   class="st1"
   x1="69.1435776"
   y1="50.1586838"
   x2="70.2382736"
   y2="49.0639839"
   id="line90" />
				<path
   class="st1"
   d="M70.2382736,49.0639839c0.6541519-0.5740471,1.1481018-1.7888985,1.1080475-2.6699982"
   id="path90" />
				<line
   class="st1"
   x1="71.3463211"
   y1="46.3939857"
   x2="71.3463211"
   y2="45.406086"
   id="line91" />
				<path
   class="st1"
   d="M71.3463211,45.406086c0-1.0413017-0.854393-1.8823509-1.8956985-1.8823509"
   id="path91" />
				<line
   class="st1"
   x1="69.4506226"
   y1="43.523735"
   x2="69.4105759"
   y2="43.523735"
   id="line92" />
				<path
   class="st1"
   d="M69.4105759,43.523735c-0.1869049,0-0.3337479,0.1468506-0.3337479,0.3337517"
   id="path92" />
				<line
   class="st1"
   x1="69.076828"
   y1="43.8574867"
   x2="69.076828"
   y2="45.0322838"
   id="line93" />
				<path
   class="st1"
   d="M68.6896744,45.406086c0.2136002,0,0.3871536-0.1735497,0.3871536-0.3738022"
   id="path93" />
				<line
   class="st1"
   x1="68.6896744"
   y1="45.406086"
   x2="67.554924"
   y2="45.406086"
   id="line94" />
				<path
   class="st1"
   d="M66.8073273,44.645134c0,0.4272003,0.3337479,0.760952,0.7475967,0.760952"
   id="path94" />
				<line
   class="st1"
   x1="66.8073273"
   y1="44.645134"
   x2="66.8073273"
   y2="43.2433853"
   id="line95" />
				<path
   class="st1"
   d="M67.9287262,42.1086349c-0.6141052,0-1.1213989,0.520649-1.1213989,1.1347504"
   id="path95" />
				<line
   class="st1"
   x1="67.9287262"
   y1="42.1086349"
   x2="75.8319244"
   y2="42.0018349"
   id="line96" />
				<path
   class="st1"
   d="M75.8719711,42.0018349c0,0-0.0266953,0-0.0400467,0"
   id="path96" />
				<path
   class="st1"
   d="M78.9024277,45.0322838c0-1.6687469-1.361702-3.0304489-3.0304565-3.0304489"
   id="path97" />
				<path
   class="st1"
   d="M78.9024277,45.0723343c0-0.0133476,0-0.0400505,0-0.0400505"
   id="path98" />
				<line
   class="st1"
   x1="41.3622246"
   y1="50.9196358"
   x2="40.5078239"
   y2="51.760685"
   id="line98" />
				<path
   class="st1"
   d="M40.5078239,51.760685c-0.6541481,0.5873985-1.1614494,1.8022499-1.1080513,2.670002"
   id="path99" />
				<line
   class="st1"
   x1="39.3997726"
   y1="54.430687"
   x2="39.3997726"
   y2="59.8107338"
   id="line99" />
				<path
   class="st1"
   d="M39.3997726,59.8107338c-0.0533981,0.8810997,0.4539032,2.0959511,1.1080513,2.670002"
   id="path100" />
				<line
   class="st1"
   x1="40.5078239"
   y1="62.4807358"
   x2="41.3622246"
   y2="63.3351364"
   id="line100" />
				<path
   class="st1"
   d="M42.4702759,66.0051346c0.0400505-0.8810959-0.4539032-2.0825996-1.1080513-2.6699982"
   id="path101" />
				<line
   class="st1"
   x1="42.4702759"
   y1="66.0051346"
   x2="42.4702759"
   y2="68.8353348"
   id="line101" />
				<path
   class="st1"
   d="M42.4702759,68.8353348c0,1.0546494,0.8410492,1.8956985,1.8823471,1.8956985"
   id="path102" />
				<line
   class="st1"
   x1="44.352623"
   y1="70.7310333"
   x2="52.9767227"
   y2="70.7310333"
   id="line102" />
				<path
   class="st1"
   d="M52.9767227,70.7310333c1.0413017,0,1.8823509-0.8410492,1.8823509-1.8956985"
   id="path103" />
				<line
   class="st1"
   x1="54.8590736"
   y1="68.8353348"
   x2="54.8590736"
   y2="66.0051346"
   id="line103" />
				<path
   class="st1"
   d="M55.9671249,63.3351364c-0.6541519,0.5873985-1.1614494,1.7889023-1.1080513,2.6699982"
   id="path104" />
				<line
   class="st1"
   x1="55.9671249"
   y1="63.3351364"
   x2="56.8215256"
   y2="62.4807358"
   id="line104" />
				<path
   class="st1"
   d="M56.8215256,62.4807358c0.6541481-0.5740509,1.148098-1.7889023,1.0946999-2.670002"
   id="path105" />
				<line
   class="st1"
   x1="57.9162254"
   y1="59.8107338"
   x2="57.9162254"
   y2="54.430687"
   id="line105" />
				<path
   class="st1"
   d="M57.9162254,54.430687c0.0533981-0.8677521-0.4405518-2.0826035-1.0946999-2.670002"
   id="path106" />
				<line
   class="st1"
   x1="56.8215256"
   y1="51.760685"
   x2="55.9671249"
   y2="50.9196358"
   id="line106" />
				<path
   class="st1"
   d="M54.8590736,48.2362862c-0.0533981,0.8810997,0.4538994,2.0959511,1.1080513,2.6833496"
   id="path107" />
				<line
   class="st1"
   x1="54.8590736"
   y1="48.2362862"
   x2="54.8590736"
   y2="45.406086"
   id="line107" />
				<path
   class="st1"
   d="M54.8590736,45.406086c0-1.0413017-0.8410492-1.8823509-1.8823509-1.8823509"
   id="path108" />
				<line
   class="st1"
   x1="52.9767227"
   y1="43.523735"
   x2="44.352623"
   y2="43.523735"
   id="line108" />
				<path
   class="st1"
   d="M44.352623,43.523735c-1.0412979,0-1.8823471,0.8410492-1.8823471,1.8823509"
   id="path109" />
				<line
   class="st1"
   x1="42.4702759"
   y1="45.406086"
   x2="42.4702759"
   y2="48.2362862"
   id="line109" />
				<path
   class="st1"
   d="M41.3622246,50.9196358c0.6541481-0.5873985,1.1481018-1.8022499,1.1080513-2.6833496"
   id="path110" />
				<path
   class="st1"
   d="M24.2475243,70.8511887c0.2136002,0,0.3738003-0.160202,0.3738003-0.3738022"
   id="path111" />
				<line
   class="st1"
   x1="24.6213245"
   y1="70.4773865"
   x2="24.6213245"
   y2="66.4189835"
   id="line111" />
				<path
   class="st1"
   d="M24.6213245,66.4189835c0-0.2002487-0.1602001-0.3737946-0.3738003-0.3737946"
   id="path112" />
				<line
   class="st1"
   x1="24.2475243"
   y1="66.0451889"
   x2="20.1624241"
   y2="66.0451889"
   id="line112" />
				<path
   class="st1"
   d="M20.1624241,66.0451889c-0.2002487,0-0.3738003,0.1735458-0.3738003,0.3737946"
   id="path113" />
				<line
   class="st1"
   x1="19.7886238"
   y1="66.4189835"
   x2="19.7886238"
   y2="69.1957855"
   id="line113" />
				<path
   class="st1"
   d="M19.7886238,69.1957855c0,0.9211502,0.7476006,1.6554031,1.6554012,1.6554031"
   id="path114" />
				<line
   class="st1"
   x1="21.444025"
   y1="70.8511887"
   x2="24.2475243"
   y2="70.8511887"
   id="line114" />
				<path
   class="st1"
   d="M72.6946716,47.8224335c0,0.2136002,0.1735535,0.3871536,0.3871536,0.3871536"
   id="path115" />
				<line
   class="st1"
   x1="73.0818253"
   y1="48.2095871"
   x2="77.1669235"
   y2="48.2095871"
   id="line115" />
				<path
   class="st1"
   d="M77.1669235,48.2095871c0.2002487,0,0.3738022-0.1735535,0.3738022-0.3871536"
   id="path116" />
				<line
   class="st1"
   x1="77.5407257"
   y1="47.8224335"
   x2="77.5407257"
   y2="45.0589867"
   id="line116" />
				<path
   class="st1"
   d="M77.5407257,45.0589867c0-0.9211502-0.7476044-1.6687508-1.6687546-1.6687508"
   id="path117" />
				<line
   class="st1"
   x1="75.8719711"
   y1="43.3902359"
   x2="73.0818253"
   y2="43.3902359"
   id="line117" />
				<path
   class="st1"
   d="M73.0818253,43.3902359c-0.2136002,0-0.3871536,0.1735497-0.3871536,0.3737984"
   id="path118" />
				<line
   class="st1"
   x1="72.6946716"
   y1="43.7640343"
   x2="72.6946716"
   y2="47.8224335"
   id="line118" />
				<path
   class="st1"
   d="M19.7886238,47.8224335c0,0.2136002,0.1735516,0.3871536,0.3738003,0.3871536"
   id="path119" />
				<line
   class="st1"
   x1="20.1624241"
   y1="48.2095871"
   x2="24.2475243"
   y2="48.2095871"
   id="line119" />
				<path
   class="st1"
   d="M24.2475243,48.2095871c0.2136002,0,0.3738003-0.1735535,0.3738003-0.3871536"
   id="path120" />
				<line
   class="st1"
   x1="24.6213245"
   y1="47.8224335"
   x2="24.6213245"
   y2="43.7640343"
   id="line120" />
				<path
   class="st1"
   d="M24.6213245,43.7640343c0-0.2002487-0.1602001-0.3737984-0.3738003-0.3737984"
   id="path121" />
				<line
   class="st1"
   x1="24.2475243"
   y1="43.3902359"
   x2="21.444025"
   y2="43.3902359"
   id="line121" />
				<path
   class="st1"
   d="M21.444025,43.3902359c-0.9078007,0-1.6554012,0.7476006-1.6554012,1.6687508"
   id="path122" />
				<line
   class="st1"
   x1="19.7886238"
   y1="45.0589867"
   x2="19.7886238"
   y2="47.8224335"
   id="line122" />
				<path
   class="st1"
   d="M66.3534241,57.1273842c0-1.4284477-1.1481018-2.5765495-2.5765495-2.5765495      c-1.4151001,0-2.5632019,1.1481018-2.5632019,2.5765495c0,1.4151001,1.1481018,2.5632019,2.5632019,2.5632019      C65.2053223,59.6905861,66.3534241,58.5424843,66.3534241,57.1273842z"
   id="path123" />
				<path
   class="st1"
   d="M36.1156731,57.1273842c0-1.4284477-1.148098-2.5765495-2.5765495-2.5765495      c-1.4151001,0-2.5631981,1.1481018-2.5631981,2.5765495c0,1.4151001,1.148098,2.5632019,2.5631981,2.5632019      C34.9675751,59.6905861,36.1156731,58.5424843,36.1156731,57.1273842z"
   id="path124" />
				<path
   class="st1"
   d="M77.5407257,66.4189835c0-0.2002487-0.1735535-0.3737946-0.3738022-0.3737946"
   id="path125" />
				<path
   class="st1"
   d="M73.0818253,66.0451889c-0.2136002,0-0.3871536,0.1735458-0.3871536,0.3737946"
   id="path126" />
				<path
   class="st1"
   d="M72.6946716,70.4773865c0,0.2136002,0.1735535,0.3738022,0.3871536,0.3738022"
   id="path127" />
				<line
   class="st1"
   x1="73.0818253"
   y1="70.8511887"
   x2="76.2457733"
   y2="70.8111343"
   id="line127" />
				<path
   class="st1"
   d="M76.2457733,70.8111343c0.6808548-0.1334991,1.2548981-0.7876511,1.281601-1.4818497"
   id="path128" />
				<line
   class="st1"
   x1="77.5407257"
   y1="69.3292847"
   x2="77.5407257"
   y2="66.5124359"
   id="line128" />
				<path
   class="st1"
   d="M27.8787251,43.523735c-1.0412998,0-1.8957005,0.8410492-1.8957005,1.8823509"
   id="path129" />
				<line
   class="st1"
   x1="72.6946716"
   y1="66.5124359"
   x2="72.6946716"
   y2="70.4773865"
   id="line129" />
				<line
   class="st1"
   x1="77.1669235"
   y1="66.0451889"
   x2="73.0818253"
   y2="66.0451889"
   id="line130" />
			</g>
		</g>
	</g>
</g>

</svg>
